<mxfile host="app.diagrams.net" agent="Mozilla/5.0 (Macintosh; Intel Mac OS X 10_15_7) AppleWebKit/537.36 (KHTML, like Gecko) Chrome/136.0.0.0 Safari/537.36" version="27.0.6" pages="4">
  <diagram name="Page-1" id="-plVO_1nhEp944JNMnsm">
    <mxGraphModel grid="1" page="1" gridSize="10" guides="1" tooltips="1" connect="1" arrows="1" fold="1" pageScale="1" pageWidth="1169" pageHeight="827" math="0" shadow="0">
      <root>
        <mxCell id="0" />
        <mxCell id="1" parent="0" />
        <mxCell id="BBfWcvd_zD0Df62bf0T2-10" value="" style="rounded=0;whiteSpace=wrap;html=1;dashed=1;dashPattern=8 8;" vertex="1" parent="1">
          <mxGeometry x="111" y="119" width="210" height="591" as="geometry" />
        </mxCell>
        <mxCell id="BBfWcvd_zD0Df62bf0T2-11" value="Source" style="text;align=center;verticalAlign=middle;resizable=0;points=[];autosize=1;strokeColor=none;fillColor=none;fontSize=20;fontStyle=1;html=1;labelBackgroundColor=default;" vertex="1" parent="1">
          <mxGeometry x="171" y="100" width="90" height="40" as="geometry" />
        </mxCell>
        <mxCell id="BBfWcvd_zD0Df62bf0T2-12" value="CRM" style="image;aspect=fixed;html=1;points=[];align=left;fontSize=12;image=img/lib/azure2/general/Folder_Blank.svg;" vertex="1" parent="1">
          <mxGeometry x="161" y="199" width="74" height="60.06" as="geometry" />
        </mxCell>
        <mxCell id="BBfWcvd_zD0Df62bf0T2-13" value="" style="image;aspect=fixed;html=1;points=[];align=center;fontSize=12;image=img/lib/azure2/general/Files.svg;" vertex="1" parent="1">
          <mxGeometry x="202" y="233.05999999999995" width="54.86" height="60" as="geometry" />
        </mxCell>
        <mxCell id="BBfWcvd_zD0Df62bf0T2-14" value="ERP" style="image;aspect=fixed;html=1;points=[];align=left;fontSize=12;image=img/lib/azure2/general/Folder_Blank.svg;" vertex="1" parent="1">
          <mxGeometry x="161" y="359" width="74" height="60.06" as="geometry" />
        </mxCell>
        <mxCell id="BBfWcvd_zD0Df62bf0T2-15" value="" style="image;aspect=fixed;html=1;points=[];align=center;fontSize=12;image=img/lib/azure2/general/Files.svg;" vertex="1" parent="1">
          <mxGeometry x="202" y="393.05999999999995" width="54.86" height="60" as="geometry" />
        </mxCell>
        <mxCell id="BBfWcvd_zD0Df62bf0T2-16" value="&lt;font style=&quot;font-size: 18px;&quot;&gt;&lt;b style=&quot;&quot;&gt;Bronze Layer&lt;/b&gt;&lt;/font&gt;" style="rounded=1;whiteSpace=wrap;html=1;strokeColor=light-dark(#bca343, #996500);fillColor=#ffe6cc;" vertex="1" parent="1">
          <mxGeometry x="375" y="119" width="196" height="60" as="geometry" />
        </mxCell>
        <mxCell id="BBfWcvd_zD0Df62bf0T2-17" value="" style="rounded=1;whiteSpace=wrap;html=1;fillColor=none;strokeColor=#d79b00;fillStyle=auto;arcSize=6;" vertex="1" parent="1">
          <mxGeometry x="375" y="189" width="196" height="521" as="geometry" />
        </mxCell>
        <mxCell id="BBfWcvd_zD0Df62bf0T2-18" value="" style="endArrow=none;html=1;rounded=0;" edge="1" parent="1">
          <mxGeometry width="50" height="50" relative="1" as="geometry">
            <mxPoint x="276" y="499" as="sourcePoint" />
            <mxPoint x="155.9999999999999" y="499.3636363636364" as="targetPoint" />
          </mxGeometry>
        </mxCell>
        <mxCell id="BBfWcvd_zD0Df62bf0T2-19" value="&lt;b&gt;Object Type: &lt;/b&gt;CSV Files&lt;div&gt;&lt;b&gt;&lt;br&gt;&lt;/b&gt;&lt;/div&gt;&lt;div&gt;&lt;b&gt;Interface: &lt;/b&gt;Files in Folders&lt;/div&gt;" style="text;html=1;align=center;verticalAlign=middle;whiteSpace=wrap;rounded=0;fontSize=14;" vertex="1" parent="1">
          <mxGeometry x="121" y="519" width="190" height="70" as="geometry" />
        </mxCell>
        <mxCell id="BBfWcvd_zD0Df62bf0T2-20" value="Stored Procedure" style="text;html=1;align=center;verticalAlign=middle;whiteSpace=wrap;rounded=0;fontSize=14;" vertex="1" parent="1">
          <mxGeometry x="401" y="189" width="140" height="30" as="geometry" />
        </mxCell>
        <mxCell id="BBfWcvd_zD0Df62bf0T2-21" value="" style="image;aspect=fixed;html=1;points=[];align=center;fontSize=12;image=img/lib/azure2/general/Code.svg;" vertex="1" parent="1">
          <mxGeometry x="447" y="219" width="52" height="42.25" as="geometry" />
        </mxCell>
        <mxCell id="BBfWcvd_zD0Df62bf0T2-22" value="" style="html=1;verticalLabelPosition=bottom;align=center;labelBackgroundColor=#ffffff;verticalAlign=top;strokeWidth=2;strokeColor=#d79b00;shadow=0;dashed=0;shape=mxgraph.ios7.icons.data;fillColor=#ffe6cc;" vertex="1" parent="1">
          <mxGeometry x="440" y="279" width="66" height="80" as="geometry" />
        </mxCell>
        <mxCell id="BBfWcvd_zD0Df62bf0T2-23" value="Raw Data" style="text;html=1;align=center;verticalAlign=middle;whiteSpace=wrap;rounded=0;fontSize=19;" vertex="1" parent="1">
          <mxGeometry x="401" y="374.03" width="140" height="30" as="geometry" />
        </mxCell>
        <mxCell id="BBfWcvd_zD0Df62bf0T2-24" value="" style="endArrow=none;html=1;rounded=0;" edge="1" parent="1">
          <mxGeometry width="50" height="50" relative="1" as="geometry">
            <mxPoint x="533" y="429" as="sourcePoint" />
            <mxPoint x="412.9999999999999" y="429.3636363636364" as="targetPoint" />
          </mxGeometry>
        </mxCell>
        <mxCell id="BBfWcvd_zD0Df62bf0T2-25" value="&lt;div style=&quot;text-align: left;&quot;&gt;&lt;b style=&quot;background-color: transparent; color: light-dark(rgb(0, 0, 0), rgb(255, 255, 255));&quot;&gt;Object Type: &lt;/b&gt;&lt;span style=&quot;background-color: transparent; color: light-dark(rgb(0, 0, 0), rgb(255, 255, 255));&quot;&gt;Tables&lt;/span&gt;&lt;/div&gt;&lt;div&gt;&lt;div style=&quot;text-align: left;&quot;&gt;&lt;b style=&quot;background-color: transparent; color: light-dark(rgb(0, 0, 0), rgb(255, 255, 255));&quot;&gt;Load:&amp;nbsp;&lt;/b&gt;&lt;/div&gt;&lt;div&gt;&lt;div style=&quot;text-align: left;&quot;&gt;&lt;ul&gt;&lt;li&gt;Batch Processing&lt;/li&gt;&lt;li&gt;Full Load&lt;/li&gt;&lt;li&gt;Truncate &amp;amp; Insert&lt;/li&gt;&lt;/ul&gt;&lt;div&gt;No &lt;b&gt;Transformations&lt;/b&gt;&lt;/div&gt;&lt;div&gt;&lt;b&gt;Data Model: &lt;/b&gt;None (as-is)&lt;/div&gt;&lt;/div&gt;&lt;/div&gt;&lt;/div&gt;" style="text;html=1;align=center;verticalAlign=middle;whiteSpace=wrap;rounded=0;fontSize=14;spacing=2;" vertex="1" parent="1">
          <mxGeometry x="375" y="429" width="197" height="220" as="geometry" />
        </mxCell>
        <mxCell id="BBfWcvd_zD0Df62bf0T2-26" value="" style="html=1;shadow=0;dashed=0;align=center;verticalAlign=middle;shape=mxgraph.arrows2.arrow;dy=0.63;dx=22.05;notch=0;fillColor=#dae8fc;strokeColor=#6c8ebf;" vertex="1" parent="1">
          <mxGeometry x="301" y="320" width="90" height="40" as="geometry" />
        </mxCell>
        <mxCell id="BBfWcvd_zD0Df62bf0T2-27" value="&lt;font style=&quot;font-size: 18px;&quot;&gt;&lt;b style=&quot;&quot;&gt;Silver Layer&lt;/b&gt;&lt;/font&gt;" style="rounded=1;whiteSpace=wrap;html=1;strokeColor=#666666;fillColor=#f5f5f5;fontColor=#333333;" vertex="1" parent="1">
          <mxGeometry x="615" y="118.99999999999997" width="196" height="60" as="geometry" />
        </mxCell>
        <mxCell id="BBfWcvd_zD0Df62bf0T2-28" value="" style="rounded=1;whiteSpace=wrap;html=1;fillColor=none;strokeColor=#666666;fillStyle=auto;arcSize=6;fontColor=#333333;" vertex="1" parent="1">
          <mxGeometry x="615" y="189" width="196" height="521" as="geometry" />
        </mxCell>
        <mxCell id="BBfWcvd_zD0Df62bf0T2-29" value="Stored Procedure" style="text;html=1;align=center;verticalAlign=middle;whiteSpace=wrap;rounded=0;fontSize=14;" vertex="1" parent="1">
          <mxGeometry x="641" y="188.99999999999997" width="140" height="30" as="geometry" />
        </mxCell>
        <mxCell id="BBfWcvd_zD0Df62bf0T2-30" value="" style="image;aspect=fixed;html=1;points=[];align=center;fontSize=12;image=img/lib/azure2/general/Code.svg;" vertex="1" parent="1">
          <mxGeometry x="687" y="218.99999999999997" width="52" height="42.25" as="geometry" />
        </mxCell>
        <mxCell id="BBfWcvd_zD0Df62bf0T2-31" value="" style="html=1;verticalLabelPosition=bottom;align=center;labelBackgroundColor=#ffffff;verticalAlign=top;strokeWidth=2;strokeColor=#666666;shadow=0;dashed=0;shape=mxgraph.ios7.icons.data;fillColor=#f5f5f5;fontColor=#333333;" vertex="1" parent="1">
          <mxGeometry x="680" y="279" width="66" height="80" as="geometry" />
        </mxCell>
        <mxCell id="BBfWcvd_zD0Df62bf0T2-32" value="Cleaned, Standardized Data" style="text;html=1;align=center;verticalAlign=middle;whiteSpace=wrap;rounded=0;fontSize=19;" vertex="1" parent="1">
          <mxGeometry x="617" y="374.03" width="190" height="30" as="geometry" />
        </mxCell>
        <mxCell id="BBfWcvd_zD0Df62bf0T2-33" value="" style="endArrow=none;html=1;rounded=0;" edge="1" parent="1">
          <mxGeometry width="50" height="50" relative="1" as="geometry">
            <mxPoint x="773" y="429" as="sourcePoint" />
            <mxPoint x="652.9999999999999" y="429.3636363636364" as="targetPoint" />
          </mxGeometry>
        </mxCell>
        <mxCell id="BBfWcvd_zD0Df62bf0T2-34" value="&lt;div style=&quot;text-align: left;&quot;&gt;&lt;b style=&quot;background-color: transparent; color: light-dark(rgb(0, 0, 0), rgb(255, 255, 255));&quot;&gt;Object Type: &lt;/b&gt;&lt;span style=&quot;background-color: transparent; color: light-dark(rgb(0, 0, 0), rgb(255, 255, 255));&quot;&gt;Tables&lt;/span&gt;&lt;/div&gt;&lt;div&gt;&lt;div style=&quot;text-align: left;&quot;&gt;&lt;b style=&quot;background-color: transparent; color: light-dark(rgb(0, 0, 0), rgb(255, 255, 255));&quot;&gt;Load:&amp;nbsp;&lt;/b&gt;&lt;/div&gt;&lt;div&gt;&lt;div style=&quot;text-align: left;&quot;&gt;&lt;ul&gt;&lt;li&gt;Batch Processing&lt;/li&gt;&lt;li&gt;Full Load&lt;/li&gt;&lt;li&gt;Truncate &amp;amp; Insert&lt;/li&gt;&lt;/ul&gt;&lt;div&gt;&lt;b&gt;Transformations:&lt;/b&gt;&lt;/div&gt;&lt;div&gt;&lt;ul&gt;&lt;li&gt;Data Cleansing&lt;/li&gt;&lt;li&gt;Data Standrization&lt;/li&gt;&lt;li&gt;Data Normalization&lt;/li&gt;&lt;li&gt;Derived Columns&lt;/li&gt;&lt;li&gt;Data Enrichment&lt;/li&gt;&lt;/ul&gt;&lt;/div&gt;&lt;div&gt;&lt;b&gt;Data Model: &lt;/b&gt;None (as-is)&lt;/div&gt;&lt;/div&gt;&lt;/div&gt;&lt;/div&gt;" style="text;html=1;align=center;verticalAlign=middle;whiteSpace=wrap;rounded=0;fontSize=14;spacing=2;" vertex="1" parent="1">
          <mxGeometry x="615" y="460" width="197" height="220" as="geometry" />
        </mxCell>
        <mxCell id="BBfWcvd_zD0Df62bf0T2-35" value="" style="html=1;shadow=0;dashed=0;align=center;verticalAlign=middle;shape=mxgraph.arrows2.arrow;dy=0.63;dx=22.05;notch=0;fillColor=#dae8fc;strokeColor=#6c8ebf;" vertex="1" parent="1">
          <mxGeometry x="541" y="320" width="90" height="40" as="geometry" />
        </mxCell>
        <mxCell id="BBfWcvd_zD0Df62bf0T2-36" value="&lt;font style=&quot;font-size: 18px;&quot;&gt;&lt;b style=&quot;&quot;&gt;Gold Layer&lt;/b&gt;&lt;/font&gt;" style="rounded=1;whiteSpace=wrap;html=1;strokeColor=#d6b656;fillColor=#fff2cc;" vertex="1" parent="1">
          <mxGeometry x="861" y="119" width="196" height="60" as="geometry" />
        </mxCell>
        <mxCell id="BBfWcvd_zD0Df62bf0T2-37" value="" style="rounded=1;whiteSpace=wrap;html=1;fillColor=none;strokeColor=#d6b656;fillStyle=auto;arcSize=6;" vertex="1" parent="1">
          <mxGeometry x="861" y="189" width="196" height="521" as="geometry" />
        </mxCell>
        <mxCell id="BBfWcvd_zD0Df62bf0T2-38" value="" style="html=1;verticalLabelPosition=bottom;align=center;labelBackgroundColor=#ffffff;verticalAlign=top;strokeWidth=2;strokeColor=#d6b656;shadow=0;dashed=0;shape=mxgraph.ios7.icons.data;fillColor=#fff2cc;" vertex="1" parent="1">
          <mxGeometry x="926" y="279" width="66" height="80" as="geometry" />
        </mxCell>
        <mxCell id="BBfWcvd_zD0Df62bf0T2-39" value="Business-Ready Data" style="text;html=1;align=center;verticalAlign=middle;whiteSpace=wrap;rounded=0;fontSize=19;" vertex="1" parent="1">
          <mxGeometry x="863" y="374.03" width="190" height="30" as="geometry" />
        </mxCell>
        <mxCell id="BBfWcvd_zD0Df62bf0T2-40" value="" style="endArrow=none;html=1;rounded=0;" edge="1" parent="1">
          <mxGeometry width="50" height="50" relative="1" as="geometry">
            <mxPoint x="1019" y="429" as="sourcePoint" />
            <mxPoint x="898.9999999999999" y="429.3636363636365" as="targetPoint" />
          </mxGeometry>
        </mxCell>
        <mxCell id="BBfWcvd_zD0Df62bf0T2-41" value="&lt;div style=&quot;text-align: left;&quot;&gt;&lt;b style=&quot;background-color: transparent; color: light-dark(rgb(0, 0, 0), rgb(255, 255, 255));&quot;&gt;Object Type: &lt;/b&gt;&lt;span style=&quot;background-color: transparent; color: light-dark(rgb(0, 0, 0), rgb(255, 255, 255));&quot;&gt;Views&lt;/span&gt;&lt;/div&gt;&lt;div style=&quot;text-align: left;&quot;&gt;&lt;span style=&quot;background-color: transparent; color: light-dark(rgb(0, 0, 0), rgb(255, 255, 255));&quot;&gt;&lt;br&gt;&lt;/span&gt;&lt;/div&gt;&lt;div&gt;&lt;div style=&quot;text-align: left;&quot;&gt;&lt;b style=&quot;background-color: transparent; color: light-dark(rgb(0, 0, 0), rgb(255, 255, 255));&quot;&gt;No Load&lt;/b&gt;&lt;/div&gt;&lt;div style=&quot;text-align: left;&quot;&gt;&lt;b style=&quot;background-color: transparent; color: light-dark(rgb(0, 0, 0), rgb(255, 255, 255));&quot;&gt;&lt;br&gt;&lt;/b&gt;&lt;/div&gt;&lt;div&gt;&lt;div style=&quot;text-align: left;&quot;&gt;&lt;div&gt;&lt;b&gt;Transformations:&lt;/b&gt;&lt;/div&gt;&lt;div&gt;&lt;ul&gt;&lt;li&gt;Data Integrations&lt;/li&gt;&lt;li&gt;Aggregations&lt;/li&gt;&lt;li&gt;Business Logics&lt;/li&gt;&lt;/ul&gt;&lt;/div&gt;&lt;div&gt;&lt;b&gt;Data Model:&amp;nbsp;&lt;/b&gt;&lt;/div&gt;&lt;div&gt;&lt;ul&gt;&lt;li&gt;Star Schema&lt;/li&gt;&lt;li&gt;Flat Table&lt;/li&gt;&lt;li&gt;Aggregated Table&lt;/li&gt;&lt;/ul&gt;&lt;/div&gt;&lt;div&gt;&lt;b&gt;&lt;br&gt;&lt;/b&gt;&lt;/div&gt;&lt;/div&gt;&lt;/div&gt;&lt;/div&gt;" style="text;html=1;align=center;verticalAlign=middle;whiteSpace=wrap;rounded=0;fontSize=14;spacing=2;" vertex="1" parent="1">
          <mxGeometry x="861" y="470" width="197" height="220" as="geometry" />
        </mxCell>
        <mxCell id="BBfWcvd_zD0Df62bf0T2-42" value="" style="html=1;shadow=0;dashed=0;align=center;verticalAlign=middle;shape=mxgraph.arrows2.arrow;dy=0.63;dx=22.05;notch=0;fillColor=#dae8fc;strokeColor=#6c8ebf;" vertex="1" parent="1">
          <mxGeometry x="791" y="320" width="90" height="40" as="geometry" />
        </mxCell>
      </root>
    </mxGraphModel>
  </diagram>
  <diagram id="Tj5YkZz-vrxTQ0y0tyAr" name="Integration_Model">
    <mxGraphModel grid="0" page="0" gridSize="10" guides="1" tooltips="1" connect="1" arrows="1" fold="1" pageScale="1" pageWidth="1169" pageHeight="827" math="0" shadow="0">
      <root>
        <mxCell id="0" />
        <mxCell id="1" parent="0" />
        <mxCell id="5351FWLVwYcqDIGvwowP-1" value="" style="rounded=1;whiteSpace=wrap;html=1;fillColor=none;movable=1;resizable=1;rotatable=1;deletable=1;editable=1;locked=0;connectable=1;" vertex="1" parent="1">
          <mxGeometry x="36.5" y="63.5" width="620" height="434.5" as="geometry" />
        </mxCell>
        <mxCell id="5351FWLVwYcqDIGvwowP-2" value="" style="rounded=1;whiteSpace=wrap;html=1;fillColor=none;" vertex="1" parent="1">
          <mxGeometry x="716.5" y="55.5" width="490" height="444.5" as="geometry" />
        </mxCell>
        <mxCell id="5351FWLVwYcqDIGvwowP-3" value="crm_cust_info" style="swimlane;fontStyle=0;childLayout=stackLayout;horizontal=1;startSize=30;horizontalStack=0;resizeParent=1;resizeParentMax=0;resizeLast=0;collapsible=1;marginBottom=0;whiteSpace=wrap;html=1;rounded=1;fillColor=#dae8fc;strokeColor=#6c8ebf;fontSize=24;" vertex="1" parent="1">
          <mxGeometry x="425.5" y="323.5" width="190" height="140" as="geometry" />
        </mxCell>
        <mxCell id="5351FWLVwYcqDIGvwowP-4" value="cst_id" style="text;strokeColor=none;fillColor=none;align=left;verticalAlign=middle;spacingLeft=4;spacingRight=4;overflow=hidden;points=[[0,0.5],[1,0.5]];portConstraint=eastwest;rotatable=0;whiteSpace=wrap;html=1;fontSize=24;" vertex="1" parent="5351FWLVwYcqDIGvwowP-3">
          <mxGeometry y="30" width="190" height="40" as="geometry" />
        </mxCell>
        <mxCell id="5351FWLVwYcqDIGvwowP-5" value="cst_key" style="text;strokeColor=none;fillColor=none;align=left;verticalAlign=middle;spacingLeft=4;spacingRight=4;overflow=hidden;points=[[0,0.5],[1,0.5]];portConstraint=eastwest;rotatable=0;whiteSpace=wrap;html=1;fontSize=24;" vertex="1" parent="5351FWLVwYcqDIGvwowP-3">
          <mxGeometry y="70" width="190" height="40" as="geometry" />
        </mxCell>
        <mxCell id="oK2TLelcddyvIWaWuKPz-3" value="CUSTOMER" style="text;html=1;strokeColor=#82b366;fillColor=#d5e8d4;align=center;verticalAlign=middle;whiteSpace=wrap;overflow=hidden;fontSize=20;" vertex="1" parent="5351FWLVwYcqDIGvwowP-3">
          <mxGeometry y="110" width="190" height="30" as="geometry" />
        </mxCell>
        <mxCell id="5351FWLVwYcqDIGvwowP-6" value="Customer Information" style="text;html=1;align=center;verticalAlign=middle;whiteSpace=wrap;rounded=0;fontSize=16;" vertex="1" parent="1">
          <mxGeometry x="435.5" y="293.5" width="170" height="30" as="geometry" />
        </mxCell>
        <mxCell id="5351FWLVwYcqDIGvwowP-7" value="crm_prd_info" style="swimlane;fontStyle=0;childLayout=stackLayout;horizontal=1;startSize=30;horizontalStack=0;resizeParent=1;resizeParentMax=0;resizeLast=0;collapsible=1;marginBottom=0;whiteSpace=wrap;html=1;rounded=1;fillColor=#dae8fc;strokeColor=#6c8ebf;fontSize=24;" vertex="1" parent="1">
          <mxGeometry x="411.5" y="153.5" width="190" height="100" as="geometry" />
        </mxCell>
        <mxCell id="5351FWLVwYcqDIGvwowP-8" value="prd_key" style="text;strokeColor=none;fillColor=none;align=left;verticalAlign=middle;spacingLeft=4;spacingRight=4;overflow=hidden;points=[[0,0.5],[1,0.5]];portConstraint=eastwest;rotatable=0;whiteSpace=wrap;html=1;fontSize=24;" vertex="1" parent="5351FWLVwYcqDIGvwowP-7">
          <mxGeometry y="30" width="190" height="40" as="geometry" />
        </mxCell>
        <mxCell id="oK2TLelcddyvIWaWuKPz-1" value="PRODUCT" style="text;html=1;strokeColor=#b85450;fillColor=#f8cecc;align=center;verticalAlign=middle;whiteSpace=wrap;overflow=hidden;fontSize=20;" vertex="1" parent="5351FWLVwYcqDIGvwowP-7">
          <mxGeometry y="70" width="190" height="30" as="geometry" />
        </mxCell>
        <mxCell id="5351FWLVwYcqDIGvwowP-9" value="Current &amp;amp; History Product Information" style="text;html=1;align=center;verticalAlign=middle;whiteSpace=wrap;rounded=0;fontSize=16;" vertex="1" parent="1">
          <mxGeometry x="366.5" y="123.5" width="280" height="30" as="geometry" />
        </mxCell>
        <mxCell id="5351FWLVwYcqDIGvwowP-10" value="crm_sales_details" style="swimlane;fontStyle=0;childLayout=stackLayout;horizontal=1;startSize=30;horizontalStack=0;resizeParent=1;resizeParentMax=0;resizeLast=0;collapsible=1;marginBottom=0;whiteSpace=wrap;html=1;rounded=1;fillColor=#dae8fc;strokeColor=#6c8ebf;fontSize=24;" vertex="1" parent="1">
          <mxGeometry x="64" y="233.5" width="205" height="140" as="geometry" />
        </mxCell>
        <mxCell id="5351FWLVwYcqDIGvwowP-11" value="prd_key" style="text;strokeColor=none;fillColor=none;align=left;verticalAlign=middle;spacingLeft=4;spacingRight=4;overflow=hidden;points=[[0,0.5],[1,0.5]];portConstraint=eastwest;rotatable=0;whiteSpace=wrap;html=1;fontSize=24;" vertex="1" parent="5351FWLVwYcqDIGvwowP-10">
          <mxGeometry y="30" width="205" height="40" as="geometry" />
        </mxCell>
        <mxCell id="5351FWLVwYcqDIGvwowP-12" value="c&lt;span style=&quot;background-color: transparent; color: light-dark(rgb(0, 0, 0), rgb(255, 255, 255));&quot;&gt;st_id&lt;/span&gt;" style="text;strokeColor=none;fillColor=none;align=left;verticalAlign=middle;spacingLeft=4;spacingRight=4;overflow=hidden;points=[[0,0.5],[1,0.5]];portConstraint=eastwest;rotatable=0;whiteSpace=wrap;html=1;fontSize=24;" vertex="1" parent="5351FWLVwYcqDIGvwowP-10">
          <mxGeometry y="70" width="205" height="40" as="geometry" />
        </mxCell>
        <mxCell id="oK2TLelcddyvIWaWuKPz-6" value="SALES" style="text;html=1;strokeColor=#9673a6;fillColor=#e1d5e7;align=center;verticalAlign=middle;whiteSpace=wrap;overflow=hidden;fontSize=20;" vertex="1" parent="5351FWLVwYcqDIGvwowP-10">
          <mxGeometry y="110" width="205" height="30" as="geometry" />
        </mxCell>
        <mxCell id="5351FWLVwYcqDIGvwowP-13" value="Transactional Records about Sales &amp;amp; Orders" style="text;html=1;align=center;verticalAlign=middle;whiteSpace=wrap;rounded=0;fontSize=16;" vertex="1" parent="1">
          <mxGeometry x="46.5" y="199.5" width="240" height="30" as="geometry" />
        </mxCell>
        <mxCell id="5351FWLVwYcqDIGvwowP-14" style="edgeStyle=orthogonalEdgeStyle;rounded=0;orthogonalLoop=1;jettySize=auto;html=1;exitX=1;exitY=0.5;exitDx=0;exitDy=0;" edge="1" parent="1" source="5351FWLVwYcqDIGvwowP-12" target="5351FWLVwYcqDIGvwowP-4">
          <mxGeometry relative="1" as="geometry" />
        </mxCell>
        <mxCell id="5351FWLVwYcqDIGvwowP-15" style="edgeStyle=orthogonalEdgeStyle;rounded=0;orthogonalLoop=1;jettySize=auto;html=1;exitX=1;exitY=0.5;exitDx=0;exitDy=0;" edge="1" parent="1" source="5351FWLVwYcqDIGvwowP-11" target="5351FWLVwYcqDIGvwowP-8">
          <mxGeometry relative="1" as="geometry" />
        </mxCell>
        <mxCell id="5351FWLVwYcqDIGvwowP-16" value="erp_cust_az12" style="swimlane;fontStyle=0;childLayout=stackLayout;horizontal=1;startSize=30;horizontalStack=0;resizeParent=1;resizeParentMax=0;resizeLast=0;collapsible=1;marginBottom=0;whiteSpace=wrap;html=1;rounded=1;fillColor=#fff2cc;strokeColor=#d6b656;fontSize=24;" vertex="1" parent="1">
          <mxGeometry x="891.5" y="246.5" width="190" height="100" as="geometry" />
        </mxCell>
        <mxCell id="5351FWLVwYcqDIGvwowP-17" value="cid" style="text;strokeColor=none;fillColor=none;align=left;verticalAlign=middle;spacingLeft=4;spacingRight=4;overflow=hidden;points=[[0,0.5],[1,0.5]];portConstraint=eastwest;rotatable=0;whiteSpace=wrap;html=1;fontSize=24;" vertex="1" parent="5351FWLVwYcqDIGvwowP-16">
          <mxGeometry y="30" width="190" height="40" as="geometry" />
        </mxCell>
        <mxCell id="oK2TLelcddyvIWaWuKPz-4" value="CUSTOMER" style="text;html=1;strokeColor=#82b366;fillColor=#d5e8d4;align=center;verticalAlign=middle;whiteSpace=wrap;overflow=hidden;fontSize=20;" vertex="1" parent="5351FWLVwYcqDIGvwowP-16">
          <mxGeometry y="70" width="190" height="30" as="geometry" />
        </mxCell>
        <mxCell id="5351FWLVwYcqDIGvwowP-18" value="Extra Customer Information (Birthdaye)" style="text;html=1;align=center;verticalAlign=middle;whiteSpace=wrap;rounded=0;fontSize=16;" vertex="1" parent="1">
          <mxGeometry x="846.5" y="216.5" width="300" height="30" as="geometry" />
        </mxCell>
        <mxCell id="5351FWLVwYcqDIGvwowP-19" value="erp_loc_a101" style="swimlane;fontStyle=0;childLayout=stackLayout;horizontal=1;startSize=30;horizontalStack=0;resizeParent=1;resizeParentMax=0;resizeLast=0;collapsible=1;marginBottom=0;whiteSpace=wrap;html=1;rounded=1;fillColor=#fff2cc;strokeColor=#d6b656;fontSize=24;" vertex="1" parent="1">
          <mxGeometry x="891.5" y="372.5" width="190" height="100" as="geometry" />
        </mxCell>
        <mxCell id="5351FWLVwYcqDIGvwowP-20" value="cid" style="text;strokeColor=none;fillColor=none;align=left;verticalAlign=middle;spacingLeft=4;spacingRight=4;overflow=hidden;points=[[0,0.5],[1,0.5]];portConstraint=eastwest;rotatable=0;whiteSpace=wrap;html=1;fontSize=24;" vertex="1" parent="5351FWLVwYcqDIGvwowP-19">
          <mxGeometry y="30" width="190" height="40" as="geometry" />
        </mxCell>
        <mxCell id="oK2TLelcddyvIWaWuKPz-5" value="CUSTOMER" style="text;html=1;strokeColor=#82b366;fillColor=#d5e8d4;align=center;verticalAlign=middle;whiteSpace=wrap;overflow=hidden;fontSize=20;" vertex="1" parent="5351FWLVwYcqDIGvwowP-19">
          <mxGeometry y="70" width="190" height="30" as="geometry" />
        </mxCell>
        <mxCell id="5351FWLVwYcqDIGvwowP-21" value="Location of Customers (Country)" style="text;html=1;align=center;verticalAlign=middle;whiteSpace=wrap;rounded=0;fontSize=16;" vertex="1" parent="1">
          <mxGeometry x="846.5" y="342.5" width="300" height="30" as="geometry" />
        </mxCell>
        <mxCell id="5351FWLVwYcqDIGvwowP-22" style="edgeStyle=orthogonalEdgeStyle;rounded=0;orthogonalLoop=1;jettySize=auto;html=1;exitX=1;exitY=0.5;exitDx=0;exitDy=0;entryX=0;entryY=0.5;entryDx=0;entryDy=0;" edge="1" parent="1" source="5351FWLVwYcqDIGvwowP-4" target="5351FWLVwYcqDIGvwowP-20">
          <mxGeometry relative="1" as="geometry" />
        </mxCell>
        <mxCell id="5351FWLVwYcqDIGvwowP-23" style="edgeStyle=orthogonalEdgeStyle;rounded=0;orthogonalLoop=1;jettySize=auto;html=1;exitX=1;exitY=0.5;exitDx=0;exitDy=0;entryX=0;entryY=0.5;entryDx=0;entryDy=0;" edge="1" parent="1" source="5351FWLVwYcqDIGvwowP-4" target="5351FWLVwYcqDIGvwowP-17">
          <mxGeometry relative="1" as="geometry" />
        </mxCell>
        <mxCell id="5351FWLVwYcqDIGvwowP-24" value="erp_px_cat_g1v2" style="swimlane;fontStyle=0;childLayout=stackLayout;horizontal=1;startSize=30;horizontalStack=0;resizeParent=1;resizeParentMax=0;resizeLast=0;collapsible=1;marginBottom=0;whiteSpace=wrap;html=1;rounded=1;fillColor=#fff2cc;strokeColor=#d6b656;fontSize=24;" vertex="1" parent="1">
          <mxGeometry x="881.5" y="121.5" width="205" height="100" as="geometry" />
        </mxCell>
        <mxCell id="5351FWLVwYcqDIGvwowP-25" value="id" style="text;strokeColor=none;fillColor=none;align=left;verticalAlign=middle;spacingLeft=4;spacingRight=4;overflow=hidden;points=[[0,0.5],[1,0.5]];portConstraint=eastwest;rotatable=0;whiteSpace=wrap;html=1;fontSize=24;" vertex="1" parent="5351FWLVwYcqDIGvwowP-24">
          <mxGeometry y="30" width="205" height="40" as="geometry" />
        </mxCell>
        <mxCell id="oK2TLelcddyvIWaWuKPz-2" value="PRODUCT" style="text;html=1;strokeColor=#b85450;fillColor=#f8cecc;align=center;verticalAlign=middle;whiteSpace=wrap;overflow=hidden;fontSize=20;" vertex="1" parent="5351FWLVwYcqDIGvwowP-24">
          <mxGeometry y="70" width="205" height="30" as="geometry" />
        </mxCell>
        <mxCell id="5351FWLVwYcqDIGvwowP-26" value="Product Categories" style="text;html=1;align=center;verticalAlign=middle;whiteSpace=wrap;rounded=0;fontSize=16;" vertex="1" parent="1">
          <mxGeometry x="836.5" y="91.5" width="300" height="30" as="geometry" />
        </mxCell>
        <mxCell id="5351FWLVwYcqDIGvwowP-27" style="edgeStyle=orthogonalEdgeStyle;rounded=0;orthogonalLoop=1;jettySize=auto;html=1;exitX=1;exitY=0.5;exitDx=0;exitDy=0;entryX=0;entryY=0.5;entryDx=0;entryDy=0;" edge="1" parent="1" source="5351FWLVwYcqDIGvwowP-8" target="5351FWLVwYcqDIGvwowP-25">
          <mxGeometry relative="1" as="geometry" />
        </mxCell>
        <mxCell id="5351FWLVwYcqDIGvwowP-28" value="&lt;font style=&quot;font-size: 40px;&quot;&gt;&lt;b&gt;CRM&lt;/b&gt;&lt;/font&gt;" style="rounded=1;whiteSpace=wrap;html=1;fillColor=#dae8fc;strokeColor=#6c8ebf;" vertex="1" parent="1">
          <mxGeometry x="268.5" y="31.5" width="190" height="60" as="geometry" />
        </mxCell>
        <mxCell id="5351FWLVwYcqDIGvwowP-29" value="&lt;font style=&quot;font-size: 40px;&quot;&gt;&lt;b&gt;ERP&lt;/b&gt;&lt;/font&gt;" style="rounded=1;whiteSpace=wrap;html=1;fillColor=#fff2cc;strokeColor=#d6b656;" vertex="1" parent="1">
          <mxGeometry x="881.5" y="23.5" width="190" height="60" as="geometry" />
        </mxCell>
      </root>
    </mxGraphModel>
  </diagram>
  <diagram id="oghJqVdhS_khzhxIrfNz" name="Data_Flow_Diagram">
    <mxGraphModel grid="0" page="0" gridSize="10" guides="1" tooltips="1" connect="1" arrows="1" fold="1" pageScale="1" pageWidth="1169" pageHeight="827" math="0" shadow="0">
      <root>
        <mxCell id="0" />
        <mxCell id="1" parent="0" />
        <mxCell id="p20luKKaAGhgXgIobZS0-1" value="" style="rounded=0;whiteSpace=wrap;html=1;dashed=1;dashPattern=8 8;" vertex="1" parent="1">
          <mxGeometry x="-195" y="257" width="210" height="530" as="geometry" />
        </mxCell>
        <mxCell id="p20luKKaAGhgXgIobZS0-2" value="Source" style="text;align=center;verticalAlign=middle;resizable=0;points=[];autosize=1;strokeColor=none;fillColor=none;fontSize=20;fontStyle=1;html=1;labelBackgroundColor=default;" vertex="1" parent="1">
          <mxGeometry x="-135" y="238" width="90" height="40" as="geometry" />
        </mxCell>
        <mxCell id="p20luKKaAGhgXgIobZS0-22" style="edgeStyle=none;curved=1;rounded=0;orthogonalLoop=1;jettySize=auto;html=1;fontSize=12;startSize=8;endSize=8;strokeColor=default;" edge="1" parent="1" source="p20luKKaAGhgXgIobZS0-3" target="p20luKKaAGhgXgIobZS0-19">
          <mxGeometry relative="1" as="geometry" />
        </mxCell>
        <mxCell id="p20luKKaAGhgXgIobZS0-3" value="CRM" style="image;aspect=fixed;html=1;points=[];align=center;fontSize=20;image=img/lib/azure2/general/Folder_Blank.svg;" vertex="1" parent="1">
          <mxGeometry x="-127" y="402.47" width="74" height="60.06" as="geometry" />
        </mxCell>
        <mxCell id="p20luKKaAGhgXgIobZS0-5" value="ERP" style="image;aspect=fixed;html=1;points=[];align=center;fontSize=20;image=img/lib/azure2/general/Folder_Blank.svg;" vertex="1" parent="1">
          <mxGeometry x="-127" y="620" width="74" height="60.06" as="geometry" />
        </mxCell>
        <mxCell id="p20luKKaAGhgXgIobZS0-7" value="&lt;font style=&quot;font-size: 18px;&quot;&gt;&lt;b style=&quot;&quot;&gt;Bronze Layer&lt;/b&gt;&lt;/font&gt;" style="rounded=1;whiteSpace=wrap;html=1;strokeColor=light-dark(#bca343, #996500);fillColor=#ffe6cc;" vertex="1" parent="1">
          <mxGeometry x="69" y="257" width="196" height="60" as="geometry" />
        </mxCell>
        <mxCell id="p20luKKaAGhgXgIobZS0-8" value="" style="rounded=1;whiteSpace=wrap;html=1;fillColor=#ffe6cc;strokeColor=#d79b00;fillStyle=hatch;arcSize=6;" vertex="1" parent="1">
          <mxGeometry x="69" y="327" width="196" height="460" as="geometry" />
        </mxCell>
        <mxCell id="QTQPf1Lz2cgHDMHlntqi-9" style="edgeStyle=none;curved=1;rounded=0;orthogonalLoop=1;jettySize=auto;html=1;exitX=1;exitY=0.5;exitDx=0;exitDy=0;entryX=0;entryY=0.5;entryDx=0;entryDy=0;fontSize=12;startSize=8;endSize=8;" edge="1" parent="1" source="p20luKKaAGhgXgIobZS0-18" target="QTQPf1Lz2cgHDMHlntqi-3">
          <mxGeometry relative="1" as="geometry" />
        </mxCell>
        <mxCell id="p20luKKaAGhgXgIobZS0-18" value="&lt;font style=&quot;font-size: 18px;&quot;&gt;&lt;span style=&quot;&quot;&gt;crm_sales_details&lt;/span&gt;&lt;/font&gt;" style="rounded=1;whiteSpace=wrap;html=1;strokeColor=light-dark(#bca343, #996500);fillColor=#ffe6cc;fontStyle=0" vertex="1" parent="1">
          <mxGeometry x="85" y="349" width="169" height="45" as="geometry" />
        </mxCell>
        <mxCell id="QTQPf1Lz2cgHDMHlntqi-10" style="edgeStyle=none;curved=1;rounded=0;orthogonalLoop=1;jettySize=auto;html=1;exitX=1;exitY=0.5;exitDx=0;exitDy=0;entryX=0;entryY=0.5;entryDx=0;entryDy=0;fontSize=12;startSize=8;endSize=8;" edge="1" parent="1" source="p20luKKaAGhgXgIobZS0-19" target="QTQPf1Lz2cgHDMHlntqi-4">
          <mxGeometry relative="1" as="geometry" />
        </mxCell>
        <mxCell id="p20luKKaAGhgXgIobZS0-19" value="&lt;font style=&quot;font-size: 18px;&quot;&gt;&lt;span style=&quot;&quot;&gt;crm_cust_info&lt;/span&gt;&lt;/font&gt;" style="rounded=1;whiteSpace=wrap;html=1;strokeColor=light-dark(#bca343, #996500);fillColor=#ffe6cc;fontStyle=0" vertex="1" parent="1">
          <mxGeometry x="85" y="410" width="169" height="45" as="geometry" />
        </mxCell>
        <mxCell id="QTQPf1Lz2cgHDMHlntqi-11" style="edgeStyle=none;curved=1;rounded=0;orthogonalLoop=1;jettySize=auto;html=1;exitX=1;exitY=0.5;exitDx=0;exitDy=0;fontSize=12;startSize=8;endSize=8;" edge="1" parent="1" source="p20luKKaAGhgXgIobZS0-20" target="QTQPf1Lz2cgHDMHlntqi-5">
          <mxGeometry relative="1" as="geometry" />
        </mxCell>
        <mxCell id="p20luKKaAGhgXgIobZS0-20" value="&lt;font style=&quot;font-size: 18px;&quot;&gt;&lt;span style=&quot;&quot;&gt;crm_prd_info&lt;/span&gt;&lt;/font&gt;" style="rounded=1;whiteSpace=wrap;html=1;strokeColor=light-dark(#bca343, #996500);fillColor=#ffe6cc;fontStyle=0" vertex="1" parent="1">
          <mxGeometry x="85" y="471" width="169" height="45" as="geometry" />
        </mxCell>
        <mxCell id="p20luKKaAGhgXgIobZS0-26" style="edgeStyle=none;curved=0;rounded=0;orthogonalLoop=1;jettySize=auto;html=1;fontSize=12;startSize=8;endSize=8;strokeColor=default;" edge="1" parent="1">
          <mxGeometry relative="1" as="geometry">
            <mxPoint x="33" y="433" as="sourcePoint" />
            <mxPoint x="85" y="370.91" as="targetPoint" />
            <Array as="points">
              <mxPoint x="33" y="371" />
            </Array>
          </mxGeometry>
        </mxCell>
        <mxCell id="p20luKKaAGhgXgIobZS0-27" style="edgeStyle=none;curved=0;rounded=0;orthogonalLoop=1;jettySize=auto;html=1;fontSize=12;startSize=8;endSize=8;strokeColor=default;" edge="1" parent="1">
          <mxGeometry relative="1" as="geometry">
            <mxPoint x="33" y="432" as="sourcePoint" />
            <mxPoint x="85" y="494" as="targetPoint" />
            <Array as="points">
              <mxPoint x="33" y="494.09" />
            </Array>
          </mxGeometry>
        </mxCell>
        <mxCell id="p20luKKaAGhgXgIobZS0-28" style="edgeStyle=none;curved=1;rounded=0;orthogonalLoop=1;jettySize=auto;html=1;fontSize=12;startSize=8;endSize=8;strokeColor=default;" edge="1" parent="1" target="p20luKKaAGhgXgIobZS0-30">
          <mxGeometry relative="1" as="geometry">
            <mxPoint x="-53" y="650" as="sourcePoint" />
          </mxGeometry>
        </mxCell>
        <mxCell id="QTQPf1Lz2cgHDMHlntqi-12" style="edgeStyle=none;curved=1;rounded=0;orthogonalLoop=1;jettySize=auto;html=1;exitX=1;exitY=0.5;exitDx=0;exitDy=0;entryX=0;entryY=0.5;entryDx=0;entryDy=0;fontSize=12;startSize=8;endSize=8;" edge="1" parent="1" source="p20luKKaAGhgXgIobZS0-29" target="QTQPf1Lz2cgHDMHlntqi-6">
          <mxGeometry relative="1" as="geometry" />
        </mxCell>
        <mxCell id="p20luKKaAGhgXgIobZS0-29" value="&lt;font style=&quot;font-size: 18px;&quot;&gt;&lt;span style=&quot;&quot;&gt;erp_cust_az12&lt;/span&gt;&lt;/font&gt;" style="rounded=1;whiteSpace=wrap;html=1;strokeColor=light-dark(#bca343, #996500);fillColor=#ffe6cc;fontStyle=0" vertex="1" parent="1">
          <mxGeometry x="85" y="566" width="169" height="45" as="geometry" />
        </mxCell>
        <mxCell id="QTQPf1Lz2cgHDMHlntqi-13" style="edgeStyle=none;curved=1;rounded=0;orthogonalLoop=1;jettySize=auto;html=1;exitX=1;exitY=0.5;exitDx=0;exitDy=0;fontSize=12;startSize=8;endSize=8;" edge="1" parent="1" source="p20luKKaAGhgXgIobZS0-30" target="QTQPf1Lz2cgHDMHlntqi-7">
          <mxGeometry relative="1" as="geometry" />
        </mxCell>
        <mxCell id="p20luKKaAGhgXgIobZS0-30" value="&lt;font style=&quot;font-size: 18px;&quot;&gt;&lt;span style=&quot;&quot;&gt;erp_loc_a101&lt;/span&gt;&lt;/font&gt;" style="rounded=1;whiteSpace=wrap;html=1;strokeColor=light-dark(#bca343, #996500);fillColor=#ffe6cc;fontStyle=0" vertex="1" parent="1">
          <mxGeometry x="85" y="627" width="169" height="45" as="geometry" />
        </mxCell>
        <mxCell id="QTQPf1Lz2cgHDMHlntqi-14" style="edgeStyle=none;curved=1;rounded=0;orthogonalLoop=1;jettySize=auto;html=1;exitX=1;exitY=0.5;exitDx=0;exitDy=0;fontSize=12;startSize=8;endSize=8;" edge="1" parent="1" source="p20luKKaAGhgXgIobZS0-31" target="QTQPf1Lz2cgHDMHlntqi-8">
          <mxGeometry relative="1" as="geometry" />
        </mxCell>
        <mxCell id="p20luKKaAGhgXgIobZS0-31" value="&lt;font style=&quot;font-size: 18px;&quot;&gt;&lt;span style=&quot;&quot;&gt;erp_px_cat_g1v2&lt;/span&gt;&lt;/font&gt;" style="rounded=1;whiteSpace=wrap;html=1;strokeColor=light-dark(#bca343, #996500);fillColor=#ffe6cc;fontStyle=0" vertex="1" parent="1">
          <mxGeometry x="85" y="688" width="169" height="45" as="geometry" />
        </mxCell>
        <mxCell id="p20luKKaAGhgXgIobZS0-32" style="edgeStyle=none;curved=0;rounded=0;orthogonalLoop=1;jettySize=auto;html=1;fontSize=12;startSize=8;endSize=8;strokeColor=default;" edge="1" parent="1">
          <mxGeometry relative="1" as="geometry">
            <mxPoint x="33" y="650" as="sourcePoint" />
            <mxPoint x="85" y="587.9100000000001" as="targetPoint" />
            <Array as="points">
              <mxPoint x="33" y="588" />
            </Array>
          </mxGeometry>
        </mxCell>
        <mxCell id="p20luKKaAGhgXgIobZS0-33" style="edgeStyle=none;curved=0;rounded=0;orthogonalLoop=1;jettySize=auto;html=1;fontSize=12;startSize=8;endSize=8;strokeColor=default;" edge="1" parent="1">
          <mxGeometry relative="1" as="geometry">
            <mxPoint x="33" y="649" as="sourcePoint" />
            <mxPoint x="85" y="711" as="targetPoint" />
            <Array as="points">
              <mxPoint x="33" y="711.0899999999999" />
            </Array>
          </mxGeometry>
        </mxCell>
        <mxCell id="QTQPf1Lz2cgHDMHlntqi-1" value="&lt;font style=&quot;font-size: 18px;&quot;&gt;&lt;b style=&quot;&quot;&gt;Silver Layer&lt;/b&gt;&lt;/font&gt;" style="rounded=1;whiteSpace=wrap;html=1;strokeColor=#666666;fillColor=#f5f5f5;fontColor=#333333;" vertex="1" parent="1">
          <mxGeometry x="323" y="257" width="196" height="60" as="geometry" />
        </mxCell>
        <mxCell id="QTQPf1Lz2cgHDMHlntqi-2" value="" style="rounded=1;whiteSpace=wrap;html=1;fillColor=#f5f5f5;strokeColor=#666666;fillStyle=hatch;arcSize=6;fontColor=#333333;" vertex="1" parent="1">
          <mxGeometry x="323" y="327" width="196" height="460" as="geometry" />
        </mxCell>
        <mxCell id="QTQPf1Lz2cgHDMHlntqi-3" value="&lt;font style=&quot;font-size: 18px;&quot;&gt;&lt;span style=&quot;&quot;&gt;crm_sales_details&lt;/span&gt;&lt;/font&gt;" style="rounded=1;whiteSpace=wrap;html=1;strokeColor=#666666;fillColor=#f5f5f5;fontStyle=0;fontColor=#333333;" vertex="1" parent="1">
          <mxGeometry x="339" y="349" width="169" height="45" as="geometry" />
        </mxCell>
        <mxCell id="QTQPf1Lz2cgHDMHlntqi-4" value="&lt;font style=&quot;font-size: 18px;&quot;&gt;&lt;span style=&quot;&quot;&gt;crm_cust_info&lt;/span&gt;&lt;/font&gt;" style="rounded=1;whiteSpace=wrap;html=1;strokeColor=#666666;fillColor=#f5f5f5;fontStyle=0;fontColor=#333333;" vertex="1" parent="1">
          <mxGeometry x="339" y="410" width="169" height="45" as="geometry" />
        </mxCell>
        <mxCell id="QTQPf1Lz2cgHDMHlntqi-5" value="&lt;font style=&quot;font-size: 18px;&quot;&gt;&lt;span style=&quot;&quot;&gt;crm_prd_info&lt;/span&gt;&lt;/font&gt;" style="rounded=1;whiteSpace=wrap;html=1;strokeColor=#666666;fillColor=#f5f5f5;fontStyle=0;fontColor=#333333;" vertex="1" parent="1">
          <mxGeometry x="339" y="471" width="169" height="45" as="geometry" />
        </mxCell>
        <mxCell id="QTQPf1Lz2cgHDMHlntqi-6" value="&lt;font style=&quot;font-size: 18px;&quot;&gt;&lt;span style=&quot;&quot;&gt;erp_cust_az12&lt;/span&gt;&lt;/font&gt;" style="rounded=1;whiteSpace=wrap;html=1;strokeColor=#666666;fillColor=#f5f5f5;fontStyle=0;fontColor=#333333;" vertex="1" parent="1">
          <mxGeometry x="339" y="566" width="169" height="45" as="geometry" />
        </mxCell>
        <mxCell id="QTQPf1Lz2cgHDMHlntqi-7" value="&lt;font style=&quot;font-size: 18px;&quot;&gt;&lt;span style=&quot;&quot;&gt;erp_loc_a101&lt;/span&gt;&lt;/font&gt;" style="rounded=1;whiteSpace=wrap;html=1;strokeColor=#666666;fillColor=#f5f5f5;fontStyle=0;fontColor=#333333;" vertex="1" parent="1">
          <mxGeometry x="339" y="627" width="169" height="45" as="geometry" />
        </mxCell>
        <mxCell id="QTQPf1Lz2cgHDMHlntqi-8" value="&lt;font style=&quot;font-size: 18px;&quot;&gt;&lt;span style=&quot;&quot;&gt;erp_px_cat_g1v2&lt;/span&gt;&lt;/font&gt;" style="rounded=1;whiteSpace=wrap;html=1;strokeColor=#666666;fillColor=#f5f5f5;fontStyle=0;fontColor=#333333;" vertex="1" parent="1">
          <mxGeometry x="339" y="688" width="169" height="45" as="geometry" />
        </mxCell>
        <mxCell id="LhAF9fEETPOT3lWNbgaD-1" value="&lt;font style=&quot;font-size: 18px;&quot;&gt;&lt;b style=&quot;&quot;&gt;Gold Layer&lt;/b&gt;&lt;/font&gt;" style="rounded=1;whiteSpace=wrap;html=1;strokeColor=#d6b656;fillColor=#fff2cc;" vertex="1" parent="1">
          <mxGeometry x="574" y="257" width="196" height="60" as="geometry" />
        </mxCell>
        <mxCell id="LhAF9fEETPOT3lWNbgaD-2" value="" style="rounded=1;whiteSpace=wrap;html=1;fillColor=#fff2cc;strokeColor=#d6b656;fillStyle=hatch;arcSize=6;" vertex="1" parent="1">
          <mxGeometry x="574" y="327" width="196" height="460" as="geometry" />
        </mxCell>
        <mxCell id="LhAF9fEETPOT3lWNbgaD-3" value="&lt;font style=&quot;font-size: 18px;&quot;&gt;&lt;span style=&quot;&quot;&gt;fact_sales&lt;/span&gt;&lt;/font&gt;" style="rounded=1;whiteSpace=wrap;html=1;strokeColor=#d6b656;fillColor=#fff2cc;fontStyle=0;" vertex="1" parent="1">
          <mxGeometry x="590" y="448" width="169" height="45" as="geometry" />
        </mxCell>
        <mxCell id="LhAF9fEETPOT3lWNbgaD-4" value="&lt;font style=&quot;font-size: 18px;&quot;&gt;&lt;span style=&quot;&quot;&gt;dim_customers&lt;/span&gt;&lt;/font&gt;" style="rounded=1;whiteSpace=wrap;html=1;strokeColor=#d6b656;fillColor=#fff2cc;fontStyle=0;" vertex="1" parent="1">
          <mxGeometry x="590" y="509" width="169" height="45" as="geometry" />
        </mxCell>
        <mxCell id="LhAF9fEETPOT3lWNbgaD-5" value="&lt;font style=&quot;font-size: 18px;&quot;&gt;&lt;span style=&quot;&quot;&gt;dim_products&lt;/span&gt;&lt;/font&gt;" style="rounded=1;whiteSpace=wrap;html=1;strokeColor=#d6b656;fillColor=#fff2cc;fontStyle=0;" vertex="1" parent="1">
          <mxGeometry x="590" y="570" width="169" height="45" as="geometry" />
        </mxCell>
        <mxCell id="LhAF9fEETPOT3lWNbgaD-10" style="edgeStyle=none;curved=0;rounded=0;orthogonalLoop=1;jettySize=auto;html=1;exitX=1;exitY=0.5;exitDx=0;exitDy=0;fontSize=12;startSize=8;endSize=8;entryX=0;entryY=0.5;entryDx=0;entryDy=0;jumpStyle=gap;" edge="1" parent="1" source="QTQPf1Lz2cgHDMHlntqi-3" target="LhAF9fEETPOT3lWNbgaD-3">
          <mxGeometry relative="1" as="geometry">
            <mxPoint x="481" y="492.05" as="sourcePoint" />
            <mxPoint x="566" y="492.05" as="targetPoint" />
          </mxGeometry>
        </mxCell>
        <mxCell id="LhAF9fEETPOT3lWNbgaD-11" style="edgeStyle=none;curved=0;rounded=0;orthogonalLoop=1;jettySize=auto;html=1;exitX=1;exitY=0.5;exitDx=0;exitDy=0;fontSize=12;startSize=8;endSize=8;entryX=0;entryY=0.5;entryDx=0;entryDy=0;jumpStyle=gap;" edge="1" parent="1" source="QTQPf1Lz2cgHDMHlntqi-4" target="LhAF9fEETPOT3lWNbgaD-4">
          <mxGeometry relative="1" as="geometry">
            <mxPoint x="499" y="452" as="sourcePoint" />
            <mxPoint x="581" y="551" as="targetPoint" />
          </mxGeometry>
        </mxCell>
        <mxCell id="LhAF9fEETPOT3lWNbgaD-12" style="edgeStyle=none;curved=0;rounded=0;orthogonalLoop=1;jettySize=auto;html=1;exitX=1;exitY=0.5;exitDx=0;exitDy=0;fontSize=12;startSize=8;endSize=8;entryX=0;entryY=0.5;entryDx=0;entryDy=0;jumpStyle=gap;" edge="1" parent="1" source="QTQPf1Lz2cgHDMHlntqi-5" target="LhAF9fEETPOT3lWNbgaD-5">
          <mxGeometry relative="1" as="geometry">
            <mxPoint x="551" y="727" as="sourcePoint" />
            <mxPoint x="633" y="826" as="targetPoint" />
          </mxGeometry>
        </mxCell>
        <mxCell id="LhAF9fEETPOT3lWNbgaD-13" style="edgeStyle=none;curved=0;rounded=0;orthogonalLoop=1;jettySize=auto;html=1;exitX=1;exitY=0.5;exitDx=0;exitDy=0;fontSize=12;startSize=8;endSize=8;entryX=0;entryY=0.5;entryDx=0;entryDy=0;jumpStyle=gap;" edge="1" parent="1" source="QTQPf1Lz2cgHDMHlntqi-8" target="LhAF9fEETPOT3lWNbgaD-5">
          <mxGeometry relative="1" as="geometry">
            <mxPoint x="544" y="721" as="sourcePoint" />
            <mxPoint x="626" y="820" as="targetPoint" />
          </mxGeometry>
        </mxCell>
        <mxCell id="LhAF9fEETPOT3lWNbgaD-14" style="edgeStyle=none;curved=0;rounded=0;orthogonalLoop=1;jettySize=auto;html=1;exitX=1;exitY=0.5;exitDx=0;exitDy=0;fontSize=12;startSize=8;endSize=8;entryX=0;entryY=0.5;entryDx=0;entryDy=0;jumpStyle=gap;" edge="1" parent="1" source="QTQPf1Lz2cgHDMHlntqi-7" target="LhAF9fEETPOT3lWNbgaD-4">
          <mxGeometry relative="1" as="geometry">
            <mxPoint x="574" y="783" as="sourcePoint" />
            <mxPoint x="589" y="855" as="targetPoint" />
          </mxGeometry>
        </mxCell>
        <mxCell id="LhAF9fEETPOT3lWNbgaD-15" style="edgeStyle=none;curved=0;rounded=0;orthogonalLoop=1;jettySize=auto;html=1;exitX=1;exitY=0.5;exitDx=0;exitDy=0;fontSize=12;startSize=8;endSize=8;entryX=0;entryY=0.5;entryDx=0;entryDy=0;jumpStyle=gap;" edge="1" parent="1" source="QTQPf1Lz2cgHDMHlntqi-6" target="LhAF9fEETPOT3lWNbgaD-4">
          <mxGeometry relative="1" as="geometry">
            <mxPoint x="591" y="917" as="sourcePoint" />
            <mxPoint x="673" y="799" as="targetPoint" />
          </mxGeometry>
        </mxCell>
      </root>
    </mxGraphModel>
  </diagram>
  <diagram id="2uyNDrATMqjVfL6DhqLe" name="Star_Schema">
    <mxGraphModel grid="0" page="0" gridSize="10" guides="1" tooltips="1" connect="1" arrows="1" fold="1" pageScale="1" pageWidth="1169" pageHeight="827" background="none" math="0" shadow="0">
      <root>
        <mxCell id="0" />
        <mxCell id="1" parent="0" />
        <mxCell id="v01sTz53brkCnvsbrE3d-1" value="gold.dim_customers" style="shape=table;startSize=30;container=1;collapsible=1;childLayout=tableLayout;fixedRows=1;rowLines=0;fontStyle=1;align=center;resizeLast=1;html=1;fillColor=#fff2cc;strokeColor=#d6b656;rounded=1;fontSize=16;" vertex="1" parent="1">
          <mxGeometry x="-143" y="-374" width="180" height="297.2727272727271" as="geometry" />
        </mxCell>
        <mxCell id="v01sTz53brkCnvsbrE3d-2" value="" style="shape=tableRow;horizontal=0;startSize=0;swimlaneHead=0;swimlaneBody=0;fillColor=none;collapsible=0;dropTarget=0;points=[[0,0.5],[1,0.5]];portConstraint=eastwest;top=0;left=0;right=0;bottom=1;fontSize=15;" vertex="1" parent="v01sTz53brkCnvsbrE3d-1">
          <mxGeometry y="30" width="180" height="30" as="geometry" />
        </mxCell>
        <mxCell id="v01sTz53brkCnvsbrE3d-3" value="PK" style="shape=partialRectangle;connectable=0;fillColor=none;top=0;left=0;bottom=0;right=0;fontStyle=1;overflow=hidden;whiteSpace=wrap;html=1;fontSize=15;" vertex="1" parent="v01sTz53brkCnvsbrE3d-2">
          <mxGeometry width="30" height="30" as="geometry">
            <mxRectangle width="30" height="30" as="alternateBounds" />
          </mxGeometry>
        </mxCell>
        <mxCell id="v01sTz53brkCnvsbrE3d-4" value="customer_key" style="shape=partialRectangle;connectable=0;fillColor=none;top=0;left=0;bottom=0;right=0;align=left;spacingLeft=6;fontStyle=5;overflow=hidden;whiteSpace=wrap;html=1;fontSize=15;" vertex="1" parent="v01sTz53brkCnvsbrE3d-2">
          <mxGeometry x="30" width="150" height="30" as="geometry">
            <mxRectangle width="150" height="30" as="alternateBounds" />
          </mxGeometry>
        </mxCell>
        <mxCell id="v01sTz53brkCnvsbrE3d-5" value="" style="shape=tableRow;horizontal=0;startSize=0;swimlaneHead=0;swimlaneBody=0;fillColor=none;collapsible=0;dropTarget=0;points=[[0,0.5],[1,0.5]];portConstraint=eastwest;top=0;left=0;right=0;bottom=0;fontSize=16;" vertex="1" parent="v01sTz53brkCnvsbrE3d-1">
          <mxGeometry y="60" width="180" height="30" as="geometry" />
        </mxCell>
        <mxCell id="v01sTz53brkCnvsbrE3d-6" value="" style="shape=partialRectangle;connectable=0;fillColor=none;top=0;left=0;bottom=0;right=0;editable=1;overflow=hidden;whiteSpace=wrap;html=1;fontSize=16;" vertex="1" parent="v01sTz53brkCnvsbrE3d-5">
          <mxGeometry width="30" height="30" as="geometry">
            <mxRectangle width="30" height="30" as="alternateBounds" />
          </mxGeometry>
        </mxCell>
        <mxCell id="v01sTz53brkCnvsbrE3d-7" value="customer_id" style="shape=partialRectangle;connectable=0;fillColor=none;top=0;left=0;bottom=0;right=0;align=left;spacingLeft=6;overflow=hidden;whiteSpace=wrap;html=1;fontSize=16;" vertex="1" parent="v01sTz53brkCnvsbrE3d-5">
          <mxGeometry x="30" width="150" height="30" as="geometry">
            <mxRectangle width="150" height="30" as="alternateBounds" />
          </mxGeometry>
        </mxCell>
        <mxCell id="v01sTz53brkCnvsbrE3d-8" value="" style="shape=tableRow;horizontal=0;startSize=0;swimlaneHead=0;swimlaneBody=0;fillColor=none;collapsible=0;dropTarget=0;points=[[0,0.5],[1,0.5]];portConstraint=eastwest;top=0;left=0;right=0;bottom=0;fontSize=16;" vertex="1" parent="v01sTz53brkCnvsbrE3d-1">
          <mxGeometry y="90" width="180" height="30" as="geometry" />
        </mxCell>
        <mxCell id="v01sTz53brkCnvsbrE3d-9" value="" style="shape=partialRectangle;connectable=0;fillColor=none;top=0;left=0;bottom=0;right=0;editable=1;overflow=hidden;whiteSpace=wrap;html=1;fontSize=16;" vertex="1" parent="v01sTz53brkCnvsbrE3d-8">
          <mxGeometry width="30" height="30" as="geometry">
            <mxRectangle width="30" height="30" as="alternateBounds" />
          </mxGeometry>
        </mxCell>
        <mxCell id="v01sTz53brkCnvsbrE3d-10" value="customer_number" style="shape=partialRectangle;connectable=0;fillColor=none;top=0;left=0;bottom=0;right=0;align=left;spacingLeft=6;overflow=hidden;whiteSpace=wrap;html=1;fontSize=16;" vertex="1" parent="v01sTz53brkCnvsbrE3d-8">
          <mxGeometry x="30" width="150" height="30" as="geometry">
            <mxRectangle width="150" height="30" as="alternateBounds" />
          </mxGeometry>
        </mxCell>
        <mxCell id="v01sTz53brkCnvsbrE3d-11" value="" style="shape=tableRow;horizontal=0;startSize=0;swimlaneHead=0;swimlaneBody=0;fillColor=none;collapsible=0;dropTarget=0;points=[[0,0.5],[1,0.5]];portConstraint=eastwest;top=0;left=0;right=0;bottom=0;fontSize=16;" vertex="1" parent="v01sTz53brkCnvsbrE3d-1">
          <mxGeometry y="120" width="180" height="30" as="geometry" />
        </mxCell>
        <mxCell id="v01sTz53brkCnvsbrE3d-12" value="" style="shape=partialRectangle;connectable=0;fillColor=none;top=0;left=0;bottom=0;right=0;editable=1;overflow=hidden;whiteSpace=wrap;html=1;fontSize=16;" vertex="1" parent="v01sTz53brkCnvsbrE3d-11">
          <mxGeometry width="30" height="30" as="geometry">
            <mxRectangle width="30" height="30" as="alternateBounds" />
          </mxGeometry>
        </mxCell>
        <mxCell id="v01sTz53brkCnvsbrE3d-13" value="first_name" style="shape=partialRectangle;connectable=0;fillColor=none;top=0;left=0;bottom=0;right=0;align=left;spacingLeft=6;overflow=hidden;whiteSpace=wrap;html=1;fontSize=16;" vertex="1" parent="v01sTz53brkCnvsbrE3d-11">
          <mxGeometry x="30" width="150" height="30" as="geometry">
            <mxRectangle width="150" height="30" as="alternateBounds" />
          </mxGeometry>
        </mxCell>
        <mxCell id="v01sTz53brkCnvsbrE3d-14" style="shape=tableRow;horizontal=0;startSize=0;swimlaneHead=0;swimlaneBody=0;fillColor=none;collapsible=0;dropTarget=0;points=[[0,0.5],[1,0.5]];portConstraint=eastwest;top=0;left=0;right=0;bottom=0;fontSize=16;" vertex="1" parent="v01sTz53brkCnvsbrE3d-1">
          <mxGeometry y="150" width="180" height="30" as="geometry" />
        </mxCell>
        <mxCell id="v01sTz53brkCnvsbrE3d-15" style="shape=partialRectangle;connectable=0;fillColor=none;top=0;left=0;bottom=0;right=0;editable=1;overflow=hidden;whiteSpace=wrap;html=1;fontSize=16;" vertex="1" parent="v01sTz53brkCnvsbrE3d-14">
          <mxGeometry width="30" height="30" as="geometry">
            <mxRectangle width="30" height="30" as="alternateBounds" />
          </mxGeometry>
        </mxCell>
        <mxCell id="v01sTz53brkCnvsbrE3d-16" value="last_name" style="shape=partialRectangle;connectable=0;fillColor=none;top=0;left=0;bottom=0;right=0;align=left;spacingLeft=6;overflow=hidden;whiteSpace=wrap;html=1;fontSize=16;" vertex="1" parent="v01sTz53brkCnvsbrE3d-14">
          <mxGeometry x="30" width="150" height="30" as="geometry">
            <mxRectangle width="150" height="30" as="alternateBounds" />
          </mxGeometry>
        </mxCell>
        <mxCell id="v01sTz53brkCnvsbrE3d-17" style="shape=tableRow;horizontal=0;startSize=0;swimlaneHead=0;swimlaneBody=0;fillColor=none;collapsible=0;dropTarget=0;points=[[0,0.5],[1,0.5]];portConstraint=eastwest;top=0;left=0;right=0;bottom=0;fontSize=16;" vertex="1" parent="v01sTz53brkCnvsbrE3d-1">
          <mxGeometry y="180" width="180" height="30" as="geometry" />
        </mxCell>
        <mxCell id="v01sTz53brkCnvsbrE3d-18" style="shape=partialRectangle;connectable=0;fillColor=none;top=0;left=0;bottom=0;right=0;editable=1;overflow=hidden;whiteSpace=wrap;html=1;fontSize=16;" vertex="1" parent="v01sTz53brkCnvsbrE3d-17">
          <mxGeometry width="30" height="30" as="geometry">
            <mxRectangle width="30" height="30" as="alternateBounds" />
          </mxGeometry>
        </mxCell>
        <mxCell id="v01sTz53brkCnvsbrE3d-19" value="country" style="shape=partialRectangle;connectable=0;fillColor=none;top=0;left=0;bottom=0;right=0;align=left;spacingLeft=6;overflow=hidden;whiteSpace=wrap;html=1;fontSize=16;" vertex="1" parent="v01sTz53brkCnvsbrE3d-17">
          <mxGeometry x="30" width="150" height="30" as="geometry">
            <mxRectangle width="150" height="30" as="alternateBounds" />
          </mxGeometry>
        </mxCell>
        <mxCell id="v01sTz53brkCnvsbrE3d-26" style="shape=tableRow;horizontal=0;startSize=0;swimlaneHead=0;swimlaneBody=0;fillColor=none;collapsible=0;dropTarget=0;points=[[0,0.5],[1,0.5]];portConstraint=eastwest;top=0;left=0;right=0;bottom=0;fontSize=16;" vertex="1" parent="v01sTz53brkCnvsbrE3d-1">
          <mxGeometry y="210" width="180" height="30" as="geometry" />
        </mxCell>
        <mxCell id="v01sTz53brkCnvsbrE3d-27" style="shape=partialRectangle;connectable=0;fillColor=none;top=0;left=0;bottom=0;right=0;editable=1;overflow=hidden;whiteSpace=wrap;html=1;fontSize=16;" vertex="1" parent="v01sTz53brkCnvsbrE3d-26">
          <mxGeometry width="30" height="30" as="geometry">
            <mxRectangle width="30" height="30" as="alternateBounds" />
          </mxGeometry>
        </mxCell>
        <mxCell id="v01sTz53brkCnvsbrE3d-28" value="marital_status" style="shape=partialRectangle;connectable=0;fillColor=none;top=0;left=0;bottom=0;right=0;align=left;spacingLeft=6;overflow=hidden;whiteSpace=wrap;html=1;fontSize=16;" vertex="1" parent="v01sTz53brkCnvsbrE3d-26">
          <mxGeometry x="30" width="150" height="30" as="geometry">
            <mxRectangle width="150" height="30" as="alternateBounds" />
          </mxGeometry>
        </mxCell>
        <mxCell id="v01sTz53brkCnvsbrE3d-23" style="shape=tableRow;horizontal=0;startSize=0;swimlaneHead=0;swimlaneBody=0;fillColor=none;collapsible=0;dropTarget=0;points=[[0,0.5],[1,0.5]];portConstraint=eastwest;top=0;left=0;right=0;bottom=0;fontSize=16;" vertex="1" parent="v01sTz53brkCnvsbrE3d-1">
          <mxGeometry y="240" width="180" height="27" as="geometry" />
        </mxCell>
        <mxCell id="v01sTz53brkCnvsbrE3d-24" style="shape=partialRectangle;connectable=0;fillColor=none;top=0;left=0;bottom=0;right=0;editable=1;overflow=hidden;whiteSpace=wrap;html=1;fontSize=16;" vertex="1" parent="v01sTz53brkCnvsbrE3d-23">
          <mxGeometry width="30" height="27" as="geometry">
            <mxRectangle width="30" height="27" as="alternateBounds" />
          </mxGeometry>
        </mxCell>
        <mxCell id="v01sTz53brkCnvsbrE3d-25" value="gender" style="shape=partialRectangle;connectable=0;fillColor=none;top=0;left=0;bottom=0;right=0;align=left;spacingLeft=6;overflow=hidden;whiteSpace=wrap;html=1;fontSize=16;" vertex="1" parent="v01sTz53brkCnvsbrE3d-23">
          <mxGeometry x="30" width="150" height="27" as="geometry">
            <mxRectangle width="150" height="27" as="alternateBounds" />
          </mxGeometry>
        </mxCell>
        <mxCell id="v01sTz53brkCnvsbrE3d-20" style="shape=tableRow;horizontal=0;startSize=0;swimlaneHead=0;swimlaneBody=0;fillColor=none;collapsible=0;dropTarget=0;points=[[0,0.5],[1,0.5]];portConstraint=eastwest;top=0;left=0;right=0;bottom=0;fontSize=16;" vertex="1" parent="v01sTz53brkCnvsbrE3d-1">
          <mxGeometry y="267" width="180" height="30" as="geometry" />
        </mxCell>
        <mxCell id="v01sTz53brkCnvsbrE3d-21" style="shape=partialRectangle;connectable=0;fillColor=none;top=0;left=0;bottom=0;right=0;editable=1;overflow=hidden;whiteSpace=wrap;html=1;fontSize=16;" vertex="1" parent="v01sTz53brkCnvsbrE3d-20">
          <mxGeometry width="30" height="30" as="geometry">
            <mxRectangle width="30" height="30" as="alternateBounds" />
          </mxGeometry>
        </mxCell>
        <mxCell id="v01sTz53brkCnvsbrE3d-22" value="birthdate" style="shape=partialRectangle;connectable=0;fillColor=none;top=0;left=0;bottom=0;right=0;align=left;spacingLeft=6;overflow=hidden;whiteSpace=wrap;html=1;fontSize=16;" vertex="1" parent="v01sTz53brkCnvsbrE3d-20">
          <mxGeometry x="30" width="150" height="30" as="geometry">
            <mxRectangle width="150" height="30" as="alternateBounds" />
          </mxGeometry>
        </mxCell>
        <mxCell id="v01sTz53brkCnvsbrE3d-29" value="gold.dim_products" style="shape=table;startSize=30;container=1;collapsible=1;childLayout=tableLayout;fixedRows=1;rowLines=0;fontStyle=1;align=center;resizeLast=1;html=1;fillColor=#fff2cc;strokeColor=#d6b656;rounded=1;fontSize=16;" vertex="1" parent="1">
          <mxGeometry x="412" y="-374" width="180" height="387.2727272727271" as="geometry" />
        </mxCell>
        <mxCell id="v01sTz53brkCnvsbrE3d-30" value="" style="shape=tableRow;horizontal=0;startSize=0;swimlaneHead=0;swimlaneBody=0;fillColor=none;collapsible=0;dropTarget=0;points=[[0,0.5],[1,0.5]];portConstraint=eastwest;top=0;left=0;right=0;bottom=1;fontSize=15;" vertex="1" parent="v01sTz53brkCnvsbrE3d-29">
          <mxGeometry y="30" width="180" height="30" as="geometry" />
        </mxCell>
        <mxCell id="v01sTz53brkCnvsbrE3d-31" value="PK" style="shape=partialRectangle;connectable=0;fillColor=none;top=0;left=0;bottom=0;right=0;fontStyle=1;overflow=hidden;whiteSpace=wrap;html=1;fontSize=15;" vertex="1" parent="v01sTz53brkCnvsbrE3d-30">
          <mxGeometry width="30" height="30" as="geometry">
            <mxRectangle width="30" height="30" as="alternateBounds" />
          </mxGeometry>
        </mxCell>
        <mxCell id="v01sTz53brkCnvsbrE3d-32" value="product_key" style="shape=partialRectangle;connectable=0;fillColor=none;top=0;left=0;bottom=0;right=0;align=left;spacingLeft=6;fontStyle=5;overflow=hidden;whiteSpace=wrap;html=1;fontSize=15;" vertex="1" parent="v01sTz53brkCnvsbrE3d-30">
          <mxGeometry x="30" width="150" height="30" as="geometry">
            <mxRectangle width="150" height="30" as="alternateBounds" />
          </mxGeometry>
        </mxCell>
        <mxCell id="v01sTz53brkCnvsbrE3d-33" value="" style="shape=tableRow;horizontal=0;startSize=0;swimlaneHead=0;swimlaneBody=0;fillColor=none;collapsible=0;dropTarget=0;points=[[0,0.5],[1,0.5]];portConstraint=eastwest;top=0;left=0;right=0;bottom=0;fontSize=16;" vertex="1" parent="v01sTz53brkCnvsbrE3d-29">
          <mxGeometry y="60" width="180" height="30" as="geometry" />
        </mxCell>
        <mxCell id="v01sTz53brkCnvsbrE3d-34" value="" style="shape=partialRectangle;connectable=0;fillColor=none;top=0;left=0;bottom=0;right=0;editable=1;overflow=hidden;whiteSpace=wrap;html=1;fontSize=16;" vertex="1" parent="v01sTz53brkCnvsbrE3d-33">
          <mxGeometry width="30" height="30" as="geometry">
            <mxRectangle width="30" height="30" as="alternateBounds" />
          </mxGeometry>
        </mxCell>
        <mxCell id="v01sTz53brkCnvsbrE3d-35" value="product_key" style="shape=partialRectangle;connectable=0;fillColor=none;top=0;left=0;bottom=0;right=0;align=left;spacingLeft=6;overflow=hidden;whiteSpace=wrap;html=1;fontSize=16;" vertex="1" parent="v01sTz53brkCnvsbrE3d-33">
          <mxGeometry x="30" width="150" height="30" as="geometry">
            <mxRectangle width="150" height="30" as="alternateBounds" />
          </mxGeometry>
        </mxCell>
        <mxCell id="v01sTz53brkCnvsbrE3d-36" value="" style="shape=tableRow;horizontal=0;startSize=0;swimlaneHead=0;swimlaneBody=0;fillColor=none;collapsible=0;dropTarget=0;points=[[0,0.5],[1,0.5]];portConstraint=eastwest;top=0;left=0;right=0;bottom=0;fontSize=16;" vertex="1" parent="v01sTz53brkCnvsbrE3d-29">
          <mxGeometry y="90" width="180" height="30" as="geometry" />
        </mxCell>
        <mxCell id="v01sTz53brkCnvsbrE3d-37" value="" style="shape=partialRectangle;connectable=0;fillColor=none;top=0;left=0;bottom=0;right=0;editable=1;overflow=hidden;whiteSpace=wrap;html=1;fontSize=16;" vertex="1" parent="v01sTz53brkCnvsbrE3d-36">
          <mxGeometry width="30" height="30" as="geometry">
            <mxRectangle width="30" height="30" as="alternateBounds" />
          </mxGeometry>
        </mxCell>
        <mxCell id="v01sTz53brkCnvsbrE3d-38" value="product_id" style="shape=partialRectangle;connectable=0;fillColor=none;top=0;left=0;bottom=0;right=0;align=left;spacingLeft=6;overflow=hidden;whiteSpace=wrap;html=1;fontSize=16;" vertex="1" parent="v01sTz53brkCnvsbrE3d-36">
          <mxGeometry x="30" width="150" height="30" as="geometry">
            <mxRectangle width="150" height="30" as="alternateBounds" />
          </mxGeometry>
        </mxCell>
        <mxCell id="v01sTz53brkCnvsbrE3d-39" value="" style="shape=tableRow;horizontal=0;startSize=0;swimlaneHead=0;swimlaneBody=0;fillColor=none;collapsible=0;dropTarget=0;points=[[0,0.5],[1,0.5]];portConstraint=eastwest;top=0;left=0;right=0;bottom=0;fontSize=16;" vertex="1" parent="v01sTz53brkCnvsbrE3d-29">
          <mxGeometry y="120" width="180" height="30" as="geometry" />
        </mxCell>
        <mxCell id="v01sTz53brkCnvsbrE3d-40" value="" style="shape=partialRectangle;connectable=0;fillColor=none;top=0;left=0;bottom=0;right=0;editable=1;overflow=hidden;whiteSpace=wrap;html=1;fontSize=16;" vertex="1" parent="v01sTz53brkCnvsbrE3d-39">
          <mxGeometry width="30" height="30" as="geometry">
            <mxRectangle width="30" height="30" as="alternateBounds" />
          </mxGeometry>
        </mxCell>
        <mxCell id="v01sTz53brkCnvsbrE3d-41" value="product_number" style="shape=partialRectangle;connectable=0;fillColor=none;top=0;left=0;bottom=0;right=0;align=left;spacingLeft=6;overflow=hidden;whiteSpace=wrap;html=1;fontSize=16;" vertex="1" parent="v01sTz53brkCnvsbrE3d-39">
          <mxGeometry x="30" width="150" height="30" as="geometry">
            <mxRectangle width="150" height="30" as="alternateBounds" />
          </mxGeometry>
        </mxCell>
        <mxCell id="v01sTz53brkCnvsbrE3d-42" style="shape=tableRow;horizontal=0;startSize=0;swimlaneHead=0;swimlaneBody=0;fillColor=none;collapsible=0;dropTarget=0;points=[[0,0.5],[1,0.5]];portConstraint=eastwest;top=0;left=0;right=0;bottom=0;fontSize=16;" vertex="1" parent="v01sTz53brkCnvsbrE3d-29">
          <mxGeometry y="150" width="180" height="30" as="geometry" />
        </mxCell>
        <mxCell id="v01sTz53brkCnvsbrE3d-43" style="shape=partialRectangle;connectable=0;fillColor=none;top=0;left=0;bottom=0;right=0;editable=1;overflow=hidden;whiteSpace=wrap;html=1;fontSize=16;" vertex="1" parent="v01sTz53brkCnvsbrE3d-42">
          <mxGeometry width="30" height="30" as="geometry">
            <mxRectangle width="30" height="30" as="alternateBounds" />
          </mxGeometry>
        </mxCell>
        <mxCell id="v01sTz53brkCnvsbrE3d-44" value="product_name" style="shape=partialRectangle;connectable=0;fillColor=none;top=0;left=0;bottom=0;right=0;align=left;spacingLeft=6;overflow=hidden;whiteSpace=wrap;html=1;fontSize=16;" vertex="1" parent="v01sTz53brkCnvsbrE3d-42">
          <mxGeometry x="30" width="150" height="30" as="geometry">
            <mxRectangle width="150" height="30" as="alternateBounds" />
          </mxGeometry>
        </mxCell>
        <mxCell id="v01sTz53brkCnvsbrE3d-45" style="shape=tableRow;horizontal=0;startSize=0;swimlaneHead=0;swimlaneBody=0;fillColor=none;collapsible=0;dropTarget=0;points=[[0,0.5],[1,0.5]];portConstraint=eastwest;top=0;left=0;right=0;bottom=0;fontSize=16;" vertex="1" parent="v01sTz53brkCnvsbrE3d-29">
          <mxGeometry y="180" width="180" height="30" as="geometry" />
        </mxCell>
        <mxCell id="v01sTz53brkCnvsbrE3d-46" style="shape=partialRectangle;connectable=0;fillColor=none;top=0;left=0;bottom=0;right=0;editable=1;overflow=hidden;whiteSpace=wrap;html=1;fontSize=16;" vertex="1" parent="v01sTz53brkCnvsbrE3d-45">
          <mxGeometry width="30" height="30" as="geometry">
            <mxRectangle width="30" height="30" as="alternateBounds" />
          </mxGeometry>
        </mxCell>
        <mxCell id="v01sTz53brkCnvsbrE3d-47" value="category_id" style="shape=partialRectangle;connectable=0;fillColor=none;top=0;left=0;bottom=0;right=0;align=left;spacingLeft=6;overflow=hidden;whiteSpace=wrap;html=1;fontSize=16;" vertex="1" parent="v01sTz53brkCnvsbrE3d-45">
          <mxGeometry x="30" width="150" height="30" as="geometry">
            <mxRectangle width="150" height="30" as="alternateBounds" />
          </mxGeometry>
        </mxCell>
        <mxCell id="v01sTz53brkCnvsbrE3d-48" style="shape=tableRow;horizontal=0;startSize=0;swimlaneHead=0;swimlaneBody=0;fillColor=none;collapsible=0;dropTarget=0;points=[[0,0.5],[1,0.5]];portConstraint=eastwest;top=0;left=0;right=0;bottom=0;fontSize=16;" vertex="1" parent="v01sTz53brkCnvsbrE3d-29">
          <mxGeometry y="210" width="180" height="30" as="geometry" />
        </mxCell>
        <mxCell id="v01sTz53brkCnvsbrE3d-49" style="shape=partialRectangle;connectable=0;fillColor=none;top=0;left=0;bottom=0;right=0;editable=1;overflow=hidden;whiteSpace=wrap;html=1;fontSize=16;" vertex="1" parent="v01sTz53brkCnvsbrE3d-48">
          <mxGeometry width="30" height="30" as="geometry">
            <mxRectangle width="30" height="30" as="alternateBounds" />
          </mxGeometry>
        </mxCell>
        <mxCell id="v01sTz53brkCnvsbrE3d-50" value="category" style="shape=partialRectangle;connectable=0;fillColor=none;top=0;left=0;bottom=0;right=0;align=left;spacingLeft=6;overflow=hidden;whiteSpace=wrap;html=1;fontSize=16;" vertex="1" parent="v01sTz53brkCnvsbrE3d-48">
          <mxGeometry x="30" width="150" height="30" as="geometry">
            <mxRectangle width="150" height="30" as="alternateBounds" />
          </mxGeometry>
        </mxCell>
        <mxCell id="v01sTz53brkCnvsbrE3d-51" style="shape=tableRow;horizontal=0;startSize=0;swimlaneHead=0;swimlaneBody=0;fillColor=none;collapsible=0;dropTarget=0;points=[[0,0.5],[1,0.5]];portConstraint=eastwest;top=0;left=0;right=0;bottom=0;fontSize=16;" vertex="1" parent="v01sTz53brkCnvsbrE3d-29">
          <mxGeometry y="240" width="180" height="27" as="geometry" />
        </mxCell>
        <mxCell id="v01sTz53brkCnvsbrE3d-52" style="shape=partialRectangle;connectable=0;fillColor=none;top=0;left=0;bottom=0;right=0;editable=1;overflow=hidden;whiteSpace=wrap;html=1;fontSize=16;" vertex="1" parent="v01sTz53brkCnvsbrE3d-51">
          <mxGeometry width="30" height="27" as="geometry">
            <mxRectangle width="30" height="27" as="alternateBounds" />
          </mxGeometry>
        </mxCell>
        <mxCell id="v01sTz53brkCnvsbrE3d-53" value="subcategory" style="shape=partialRectangle;connectable=0;fillColor=none;top=0;left=0;bottom=0;right=0;align=left;spacingLeft=6;overflow=hidden;whiteSpace=wrap;html=1;fontSize=16;" vertex="1" parent="v01sTz53brkCnvsbrE3d-51">
          <mxGeometry x="30" width="150" height="27" as="geometry">
            <mxRectangle width="150" height="27" as="alternateBounds" />
          </mxGeometry>
        </mxCell>
        <mxCell id="v01sTz53brkCnvsbrE3d-54" style="shape=tableRow;horizontal=0;startSize=0;swimlaneHead=0;swimlaneBody=0;fillColor=none;collapsible=0;dropTarget=0;points=[[0,0.5],[1,0.5]];portConstraint=eastwest;top=0;left=0;right=0;bottom=0;fontSize=16;" vertex="1" parent="v01sTz53brkCnvsbrE3d-29">
          <mxGeometry y="267" width="180" height="30" as="geometry" />
        </mxCell>
        <mxCell id="v01sTz53brkCnvsbrE3d-55" style="shape=partialRectangle;connectable=0;fillColor=none;top=0;left=0;bottom=0;right=0;editable=1;overflow=hidden;whiteSpace=wrap;html=1;fontSize=16;" vertex="1" parent="v01sTz53brkCnvsbrE3d-54">
          <mxGeometry width="30" height="30" as="geometry">
            <mxRectangle width="30" height="30" as="alternateBounds" />
          </mxGeometry>
        </mxCell>
        <mxCell id="v01sTz53brkCnvsbrE3d-56" value="maintenance" style="shape=partialRectangle;connectable=0;fillColor=none;top=0;left=0;bottom=0;right=0;align=left;spacingLeft=6;overflow=hidden;whiteSpace=wrap;html=1;fontSize=16;" vertex="1" parent="v01sTz53brkCnvsbrE3d-54">
          <mxGeometry x="30" width="150" height="30" as="geometry">
            <mxRectangle width="150" height="30" as="alternateBounds" />
          </mxGeometry>
        </mxCell>
        <mxCell id="v01sTz53brkCnvsbrE3d-63" style="shape=tableRow;horizontal=0;startSize=0;swimlaneHead=0;swimlaneBody=0;fillColor=none;collapsible=0;dropTarget=0;points=[[0,0.5],[1,0.5]];portConstraint=eastwest;top=0;left=0;right=0;bottom=0;fontSize=16;" vertex="1" parent="v01sTz53brkCnvsbrE3d-29">
          <mxGeometry y="297" width="180" height="30" as="geometry" />
        </mxCell>
        <mxCell id="v01sTz53brkCnvsbrE3d-64" style="shape=partialRectangle;connectable=0;fillColor=none;top=0;left=0;bottom=0;right=0;editable=1;overflow=hidden;whiteSpace=wrap;html=1;fontSize=16;" vertex="1" parent="v01sTz53brkCnvsbrE3d-63">
          <mxGeometry width="30" height="30" as="geometry">
            <mxRectangle width="30" height="30" as="alternateBounds" />
          </mxGeometry>
        </mxCell>
        <mxCell id="v01sTz53brkCnvsbrE3d-65" value="cost" style="shape=partialRectangle;connectable=0;fillColor=none;top=0;left=0;bottom=0;right=0;align=left;spacingLeft=6;overflow=hidden;whiteSpace=wrap;html=1;fontSize=16;" vertex="1" parent="v01sTz53brkCnvsbrE3d-63">
          <mxGeometry x="30" width="150" height="30" as="geometry">
            <mxRectangle width="150" height="30" as="alternateBounds" />
          </mxGeometry>
        </mxCell>
        <mxCell id="v01sTz53brkCnvsbrE3d-60" style="shape=tableRow;horizontal=0;startSize=0;swimlaneHead=0;swimlaneBody=0;fillColor=none;collapsible=0;dropTarget=0;points=[[0,0.5],[1,0.5]];portConstraint=eastwest;top=0;left=0;right=0;bottom=0;fontSize=16;" vertex="1" parent="v01sTz53brkCnvsbrE3d-29">
          <mxGeometry y="327" width="180" height="30" as="geometry" />
        </mxCell>
        <mxCell id="v01sTz53brkCnvsbrE3d-61" style="shape=partialRectangle;connectable=0;fillColor=none;top=0;left=0;bottom=0;right=0;editable=1;overflow=hidden;whiteSpace=wrap;html=1;fontSize=16;" vertex="1" parent="v01sTz53brkCnvsbrE3d-60">
          <mxGeometry width="30" height="30" as="geometry">
            <mxRectangle width="30" height="30" as="alternateBounds" />
          </mxGeometry>
        </mxCell>
        <mxCell id="v01sTz53brkCnvsbrE3d-62" value="product_line" style="shape=partialRectangle;connectable=0;fillColor=none;top=0;left=0;bottom=0;right=0;align=left;spacingLeft=6;overflow=hidden;whiteSpace=wrap;html=1;fontSize=16;" vertex="1" parent="v01sTz53brkCnvsbrE3d-60">
          <mxGeometry x="30" width="150" height="30" as="geometry">
            <mxRectangle width="150" height="30" as="alternateBounds" />
          </mxGeometry>
        </mxCell>
        <mxCell id="v01sTz53brkCnvsbrE3d-57" style="shape=tableRow;horizontal=0;startSize=0;swimlaneHead=0;swimlaneBody=0;fillColor=none;collapsible=0;dropTarget=0;points=[[0,0.5],[1,0.5]];portConstraint=eastwest;top=0;left=0;right=0;bottom=0;fontSize=16;" vertex="1" parent="v01sTz53brkCnvsbrE3d-29">
          <mxGeometry y="357" width="180" height="30" as="geometry" />
        </mxCell>
        <mxCell id="v01sTz53brkCnvsbrE3d-58" style="shape=partialRectangle;connectable=0;fillColor=none;top=0;left=0;bottom=0;right=0;editable=1;overflow=hidden;whiteSpace=wrap;html=1;fontSize=16;" vertex="1" parent="v01sTz53brkCnvsbrE3d-57">
          <mxGeometry width="30" height="30" as="geometry">
            <mxRectangle width="30" height="30" as="alternateBounds" />
          </mxGeometry>
        </mxCell>
        <mxCell id="v01sTz53brkCnvsbrE3d-59" value="start_date" style="shape=partialRectangle;connectable=0;fillColor=none;top=0;left=0;bottom=0;right=0;align=left;spacingLeft=6;overflow=hidden;whiteSpace=wrap;html=1;fontSize=16;" vertex="1" parent="v01sTz53brkCnvsbrE3d-57">
          <mxGeometry x="30" width="150" height="30" as="geometry">
            <mxRectangle width="150" height="30" as="alternateBounds" />
          </mxGeometry>
        </mxCell>
        <mxCell id="v01sTz53brkCnvsbrE3d-66" value="gold.fact_sales" style="shape=table;startSize=30;container=1;collapsible=1;childLayout=tableLayout;fixedRows=1;rowLines=0;fontStyle=1;align=center;resizeLast=1;html=1;fillColor=#dae8fc;strokeColor=#6c8ebf;rounded=1;fontSize=16;" vertex="1" parent="1">
          <mxGeometry x="135" y="-374" width="180" height="297.2727272727271" as="geometry" />
        </mxCell>
        <mxCell id="v01sTz53brkCnvsbrE3d-70" value="" style="shape=tableRow;horizontal=0;startSize=0;swimlaneHead=0;swimlaneBody=0;fillColor=none;collapsible=0;dropTarget=0;points=[[0,0.5],[1,0.5]];portConstraint=eastwest;top=0;left=0;right=0;bottom=0;fontSize=16;" vertex="1" parent="v01sTz53brkCnvsbrE3d-66">
          <mxGeometry y="30" width="180" height="30" as="geometry" />
        </mxCell>
        <mxCell id="v01sTz53brkCnvsbrE3d-71" value="" style="shape=partialRectangle;connectable=0;fillColor=none;top=0;left=0;bottom=0;right=0;editable=1;overflow=hidden;whiteSpace=wrap;html=1;fontSize=16;" vertex="1" parent="v01sTz53brkCnvsbrE3d-70">
          <mxGeometry width="40.80769230769232" height="30" as="geometry">
            <mxRectangle width="40.80769230769232" height="30" as="alternateBounds" />
          </mxGeometry>
        </mxCell>
        <mxCell id="v01sTz53brkCnvsbrE3d-72" value="order_number" style="shape=partialRectangle;connectable=0;fillColor=none;top=0;left=0;bottom=0;right=0;align=left;spacingLeft=6;overflow=hidden;whiteSpace=wrap;html=1;fontSize=16;" vertex="1" parent="v01sTz53brkCnvsbrE3d-70">
          <mxGeometry x="40.80769230769232" width="139.19230769230768" height="30" as="geometry">
            <mxRectangle width="139.19230769230768" height="30" as="alternateBounds" />
          </mxGeometry>
        </mxCell>
        <mxCell id="v01sTz53brkCnvsbrE3d-73" value="" style="shape=tableRow;horizontal=0;startSize=0;swimlaneHead=0;swimlaneBody=0;fillColor=none;collapsible=0;dropTarget=0;points=[[0,0.5],[1,0.5]];portConstraint=eastwest;top=0;left=0;right=0;bottom=0;fontSize=16;" vertex="1" parent="v01sTz53brkCnvsbrE3d-66">
          <mxGeometry y="60" width="180" height="30" as="geometry" />
        </mxCell>
        <mxCell id="v01sTz53brkCnvsbrE3d-74" value="&lt;b&gt;&lt;font style=&quot;font-size: 15px;&quot;&gt;FK1&lt;/font&gt;&lt;/b&gt;" style="shape=partialRectangle;connectable=0;fillColor=none;top=0;left=0;bottom=0;right=0;editable=1;overflow=hidden;whiteSpace=wrap;html=1;fontSize=16;" vertex="1" parent="v01sTz53brkCnvsbrE3d-73">
          <mxGeometry width="40.80769230769232" height="30" as="geometry">
            <mxRectangle width="40.80769230769232" height="30" as="alternateBounds" />
          </mxGeometry>
        </mxCell>
        <mxCell id="v01sTz53brkCnvsbrE3d-75" value="product_key" style="shape=partialRectangle;connectable=0;fillColor=none;top=0;left=0;bottom=0;right=0;align=left;spacingLeft=6;overflow=hidden;whiteSpace=wrap;html=1;fontSize=16;" vertex="1" parent="v01sTz53brkCnvsbrE3d-73">
          <mxGeometry x="40.80769230769232" width="139.19230769230768" height="30" as="geometry">
            <mxRectangle width="139.19230769230768" height="30" as="alternateBounds" />
          </mxGeometry>
        </mxCell>
        <mxCell id="v01sTz53brkCnvsbrE3d-76" value="" style="shape=tableRow;horizontal=0;startSize=0;swimlaneHead=0;swimlaneBody=0;fillColor=none;collapsible=0;dropTarget=0;points=[[0,0.5],[1,0.5]];portConstraint=eastwest;top=0;left=0;right=0;bottom=0;fontSize=16;" vertex="1" parent="v01sTz53brkCnvsbrE3d-66">
          <mxGeometry y="90" width="180" height="30" as="geometry" />
        </mxCell>
        <mxCell id="v01sTz53brkCnvsbrE3d-77" value="&lt;b&gt;&lt;font style=&quot;font-size: 15px;&quot;&gt;FK2&lt;/font&gt;&lt;/b&gt;" style="shape=partialRectangle;connectable=0;fillColor=none;top=0;left=0;bottom=0;right=0;editable=1;overflow=hidden;whiteSpace=wrap;html=1;fontSize=16;" vertex="1" parent="v01sTz53brkCnvsbrE3d-76">
          <mxGeometry width="40.80769230769232" height="30" as="geometry">
            <mxRectangle width="40.80769230769232" height="30" as="alternateBounds" />
          </mxGeometry>
        </mxCell>
        <mxCell id="v01sTz53brkCnvsbrE3d-78" value="customer_key" style="shape=partialRectangle;connectable=0;fillColor=none;top=0;left=0;bottom=0;right=0;align=left;spacingLeft=6;overflow=hidden;whiteSpace=wrap;html=1;fontSize=16;" vertex="1" parent="v01sTz53brkCnvsbrE3d-76">
          <mxGeometry x="40.80769230769232" width="139.19230769230768" height="30" as="geometry">
            <mxRectangle width="139.19230769230768" height="30" as="alternateBounds" />
          </mxGeometry>
        </mxCell>
        <mxCell id="v01sTz53brkCnvsbrE3d-79" style="shape=tableRow;horizontal=0;startSize=0;swimlaneHead=0;swimlaneBody=0;fillColor=none;collapsible=0;dropTarget=0;points=[[0,0.5],[1,0.5]];portConstraint=eastwest;top=0;left=0;right=0;bottom=0;fontSize=16;" vertex="1" parent="v01sTz53brkCnvsbrE3d-66">
          <mxGeometry y="120" width="180" height="30" as="geometry" />
        </mxCell>
        <mxCell id="v01sTz53brkCnvsbrE3d-80" style="shape=partialRectangle;connectable=0;fillColor=none;top=0;left=0;bottom=0;right=0;editable=1;overflow=hidden;whiteSpace=wrap;html=1;fontSize=16;" vertex="1" parent="v01sTz53brkCnvsbrE3d-79">
          <mxGeometry width="40.80769230769232" height="30" as="geometry">
            <mxRectangle width="40.80769230769232" height="30" as="alternateBounds" />
          </mxGeometry>
        </mxCell>
        <mxCell id="v01sTz53brkCnvsbrE3d-81" value="order_date" style="shape=partialRectangle;connectable=0;fillColor=none;top=0;left=0;bottom=0;right=0;align=left;spacingLeft=6;overflow=hidden;whiteSpace=wrap;html=1;fontSize=16;" vertex="1" parent="v01sTz53brkCnvsbrE3d-79">
          <mxGeometry x="40.80769230769232" width="139.19230769230768" height="30" as="geometry">
            <mxRectangle width="139.19230769230768" height="30" as="alternateBounds" />
          </mxGeometry>
        </mxCell>
        <mxCell id="v01sTz53brkCnvsbrE3d-82" style="shape=tableRow;horizontal=0;startSize=0;swimlaneHead=0;swimlaneBody=0;fillColor=none;collapsible=0;dropTarget=0;points=[[0,0.5],[1,0.5]];portConstraint=eastwest;top=0;left=0;right=0;bottom=0;fontSize=16;" vertex="1" parent="v01sTz53brkCnvsbrE3d-66">
          <mxGeometry y="150" width="180" height="30" as="geometry" />
        </mxCell>
        <mxCell id="v01sTz53brkCnvsbrE3d-83" style="shape=partialRectangle;connectable=0;fillColor=none;top=0;left=0;bottom=0;right=0;editable=1;overflow=hidden;whiteSpace=wrap;html=1;fontSize=16;" vertex="1" parent="v01sTz53brkCnvsbrE3d-82">
          <mxGeometry width="40.80769230769232" height="30" as="geometry">
            <mxRectangle width="40.80769230769232" height="30" as="alternateBounds" />
          </mxGeometry>
        </mxCell>
        <mxCell id="v01sTz53brkCnvsbrE3d-84" value="shipping_date" style="shape=partialRectangle;connectable=0;fillColor=none;top=0;left=0;bottom=0;right=0;align=left;spacingLeft=6;overflow=hidden;whiteSpace=wrap;html=1;fontSize=16;" vertex="1" parent="v01sTz53brkCnvsbrE3d-82">
          <mxGeometry x="40.80769230769232" width="139.19230769230768" height="30" as="geometry">
            <mxRectangle width="139.19230769230768" height="30" as="alternateBounds" />
          </mxGeometry>
        </mxCell>
        <mxCell id="v01sTz53brkCnvsbrE3d-85" style="shape=tableRow;horizontal=0;startSize=0;swimlaneHead=0;swimlaneBody=0;fillColor=none;collapsible=0;dropTarget=0;points=[[0,0.5],[1,0.5]];portConstraint=eastwest;top=0;left=0;right=0;bottom=0;fontSize=16;" vertex="1" parent="v01sTz53brkCnvsbrE3d-66">
          <mxGeometry y="180" width="180" height="30" as="geometry" />
        </mxCell>
        <mxCell id="v01sTz53brkCnvsbrE3d-86" style="shape=partialRectangle;connectable=0;fillColor=none;top=0;left=0;bottom=0;right=0;editable=1;overflow=hidden;whiteSpace=wrap;html=1;fontSize=16;" vertex="1" parent="v01sTz53brkCnvsbrE3d-85">
          <mxGeometry width="40.80769230769232" height="30" as="geometry">
            <mxRectangle width="40.80769230769232" height="30" as="alternateBounds" />
          </mxGeometry>
        </mxCell>
        <mxCell id="v01sTz53brkCnvsbrE3d-87" value="due_date" style="shape=partialRectangle;connectable=0;fillColor=none;top=0;left=0;bottom=0;right=0;align=left;spacingLeft=6;overflow=hidden;whiteSpace=wrap;html=1;fontSize=16;" vertex="1" parent="v01sTz53brkCnvsbrE3d-85">
          <mxGeometry x="40.80769230769232" width="139.19230769230768" height="30" as="geometry">
            <mxRectangle width="139.19230769230768" height="30" as="alternateBounds" />
          </mxGeometry>
        </mxCell>
        <mxCell id="v01sTz53brkCnvsbrE3d-88" style="shape=tableRow;horizontal=0;startSize=0;swimlaneHead=0;swimlaneBody=0;fillColor=none;collapsible=0;dropTarget=0;points=[[0,0.5],[1,0.5]];portConstraint=eastwest;top=0;left=0;right=0;bottom=0;fontSize=16;" vertex="1" parent="v01sTz53brkCnvsbrE3d-66">
          <mxGeometry y="210" width="180" height="27" as="geometry" />
        </mxCell>
        <mxCell id="v01sTz53brkCnvsbrE3d-89" style="shape=partialRectangle;connectable=0;fillColor=none;top=0;left=0;bottom=0;right=0;editable=1;overflow=hidden;whiteSpace=wrap;html=1;fontSize=16;" vertex="1" parent="v01sTz53brkCnvsbrE3d-88">
          <mxGeometry width="40.80769230769232" height="27" as="geometry">
            <mxRectangle width="40.80769230769232" height="27" as="alternateBounds" />
          </mxGeometry>
        </mxCell>
        <mxCell id="v01sTz53brkCnvsbrE3d-90" value="sales_amount" style="shape=partialRectangle;connectable=0;fillColor=none;top=0;left=0;bottom=0;right=0;align=left;spacingLeft=6;overflow=hidden;whiteSpace=wrap;html=1;fontSize=16;" vertex="1" parent="v01sTz53brkCnvsbrE3d-88">
          <mxGeometry x="40.80769230769232" width="139.19230769230768" height="27" as="geometry">
            <mxRectangle width="139.19230769230768" height="27" as="alternateBounds" />
          </mxGeometry>
        </mxCell>
        <mxCell id="v01sTz53brkCnvsbrE3d-91" style="shape=tableRow;horizontal=0;startSize=0;swimlaneHead=0;swimlaneBody=0;fillColor=none;collapsible=0;dropTarget=0;points=[[0,0.5],[1,0.5]];portConstraint=eastwest;top=0;left=0;right=0;bottom=0;fontSize=16;" vertex="1" parent="v01sTz53brkCnvsbrE3d-66">
          <mxGeometry y="237" width="180" height="30" as="geometry" />
        </mxCell>
        <mxCell id="v01sTz53brkCnvsbrE3d-92" style="shape=partialRectangle;connectable=0;fillColor=none;top=0;left=0;bottom=0;right=0;editable=1;overflow=hidden;whiteSpace=wrap;html=1;fontSize=16;" vertex="1" parent="v01sTz53brkCnvsbrE3d-91">
          <mxGeometry width="40.80769230769232" height="30" as="geometry">
            <mxRectangle width="40.80769230769232" height="30" as="alternateBounds" />
          </mxGeometry>
        </mxCell>
        <mxCell id="v01sTz53brkCnvsbrE3d-93" value="quantity" style="shape=partialRectangle;connectable=0;fillColor=none;top=0;left=0;bottom=0;right=0;align=left;spacingLeft=6;overflow=hidden;whiteSpace=wrap;html=1;fontSize=16;" vertex="1" parent="v01sTz53brkCnvsbrE3d-91">
          <mxGeometry x="40.80769230769232" width="139.19230769230768" height="30" as="geometry">
            <mxRectangle width="139.19230769230768" height="30" as="alternateBounds" />
          </mxGeometry>
        </mxCell>
        <mxCell id="v01sTz53brkCnvsbrE3d-94" style="shape=tableRow;horizontal=0;startSize=0;swimlaneHead=0;swimlaneBody=0;fillColor=none;collapsible=0;dropTarget=0;points=[[0,0.5],[1,0.5]];portConstraint=eastwest;top=0;left=0;right=0;bottom=0;fontSize=16;" vertex="1" parent="v01sTz53brkCnvsbrE3d-66">
          <mxGeometry y="267" width="180" height="30" as="geometry" />
        </mxCell>
        <mxCell id="v01sTz53brkCnvsbrE3d-95" style="shape=partialRectangle;connectable=0;fillColor=none;top=0;left=0;bottom=0;right=0;editable=1;overflow=hidden;whiteSpace=wrap;html=1;fontSize=16;" vertex="1" parent="v01sTz53brkCnvsbrE3d-94">
          <mxGeometry width="40.80769230769232" height="30" as="geometry">
            <mxRectangle width="40.80769230769232" height="30" as="alternateBounds" />
          </mxGeometry>
        </mxCell>
        <mxCell id="v01sTz53brkCnvsbrE3d-96" value="price" style="shape=partialRectangle;connectable=0;fillColor=none;top=0;left=0;bottom=0;right=0;align=left;spacingLeft=6;overflow=hidden;whiteSpace=wrap;html=1;fontSize=16;" vertex="1" parent="v01sTz53brkCnvsbrE3d-94">
          <mxGeometry x="40.80769230769232" width="139.19230769230768" height="30" as="geometry">
            <mxRectangle width="139.19230769230768" height="30" as="alternateBounds" />
          </mxGeometry>
        </mxCell>
        <mxCell id="v01sTz53brkCnvsbrE3d-98" value="" style="edgeStyle=entityRelationEdgeStyle;fontSize=12;html=1;endArrow=ERzeroToMany;startArrow=ERmandOne;rounded=0;startSize=8;endSize=8;curved=0;exitX=1;exitY=0.5;exitDx=0;exitDy=0;entryX=0;entryY=0.5;entryDx=0;entryDy=0;strokeColor=default;" edge="1" parent="1" source="v01sTz53brkCnvsbrE3d-2" target="v01sTz53brkCnvsbrE3d-76">
          <mxGeometry width="100" height="100" relative="1" as="geometry">
            <mxPoint x="42" y="-204" as="sourcePoint" />
            <mxPoint x="142" y="-304" as="targetPoint" />
          </mxGeometry>
        </mxCell>
        <mxCell id="v01sTz53brkCnvsbrE3d-99" value="" style="edgeStyle=entityRelationEdgeStyle;fontSize=12;html=1;endArrow=ERzeroToMany;startArrow=ERmandOne;rounded=0;startSize=8;endSize=8;curved=0;exitX=0;exitY=0.5;exitDx=0;exitDy=0;strokeColor=default;" edge="1" parent="1" source="v01sTz53brkCnvsbrE3d-30" target="v01sTz53brkCnvsbrE3d-73">
          <mxGeometry width="100" height="100" relative="1" as="geometry">
            <mxPoint x="317" y="-216" as="sourcePoint" />
            <mxPoint x="415" y="-156" as="targetPoint" />
          </mxGeometry>
        </mxCell>
        <mxCell id="v01sTz53brkCnvsbrE3d-100" value="&lt;h1 style=&quot;margin-top: 0px;&quot;&gt;&lt;font style=&quot;font-size: 21px;&quot;&gt;&lt;u&gt;Sales Calculation&lt;/u&gt;&lt;/font&gt;&lt;/h1&gt;&lt;p&gt;&lt;font style=&quot;font-size: 16px;&quot;&gt;Sales = Quantity * Price&lt;/font&gt;&lt;/p&gt;" style="text;html=1;whiteSpace=wrap;overflow=hidden;rounded=0;" vertex="1" parent="1">
          <mxGeometry x="196" y="-56" width="180" height="120" as="geometry" />
        </mxCell>
        <mxCell id="v01sTz53brkCnvsbrE3d-101" value="" style="endArrow=none;dashed=1;html=1;dashPattern=1 3;strokeWidth=2;rounded=0;fontSize=12;startSize=8;endSize=8;curved=1;exitX=0.5;exitY=0;exitDx=0;exitDy=0;entryX=0.729;entryY=0.852;entryDx=0;entryDy=0;entryPerimeter=0;" edge="1" parent="1" source="v01sTz53brkCnvsbrE3d-100" target="v01sTz53brkCnvsbrE3d-88">
          <mxGeometry width="50" height="50" relative="1" as="geometry">
            <mxPoint x="235" y="-135" as="sourcePoint" />
            <mxPoint x="285" y="-185" as="targetPoint" />
          </mxGeometry>
        </mxCell>
      </root>
    </mxGraphModel>
  </diagram>
</mxfile>
